<?xml version="1.0" encoding="utf-8"?>
<!-- Generator: Adobe Illustrator 24.0.0, SVG Export Plug-In . SVG Version: 6.00 Build 0)  -->
<svg version="1.1" id="Calque_1" xmlns="http://www.w3.org/2000/svg" xmlns:xlink="http://www.w3.org/1999/xlink" x="0px" y="0px"
	 viewBox="0 0 645.7 472.525" style="enable-background:new 0 0 645.7 472.525;" xml:space="preserve">
<style type="text/css">
	.st0{fill:#FFFFFF;stroke:#1BBBC5;stroke-miterlimit:10;}
	.st1{fill:#FFFFFF;stroke:#1BBBC5;stroke-linecap:round;stroke-linejoin:round;}
	.st2{fill:#FFFFFF;}
	.st3{fill:none;stroke:#1BBBC5;stroke-linecap:round;stroke-linejoin:round;}
	.st4{fill:#EE7F00;}
	.st5{fill:none;stroke:#FFFFFF;stroke-width:0.35;stroke-linecap:round;stroke-linejoin:round;}
	.st6{font-family:'Verdana';}
	.st7{font-size:9px;}
	.st8{fill:#8CA2C0;}
	.st9{fill:none;stroke:#D9E4F1;stroke-width:0.25;stroke-linecap:round;stroke-linejoin:round;}
	.st10{font-family:'ArialMT';}
	.st11{font-size:10px;}
</style>
<g>
	<path class="st0" d="M472.1,179.725l0.8-3.6l-0.6-0.3l-3.4-2.5l-2.2-0.8l-1.7-1.8l-1.7,0.5l-3.1,0.1l-1.9-3.8l-3.3,0.9l-5.3-3.9
		l3.5-2.1l2.3-0.1l1.7-0.7l-0.1-3.1l1.2-4.9l2.7-1.9l2.1-0.7l-0.2-1.7l-1.4-3.5l-3.5-0.3l-1.7,0.5l-2.2-1l-1.6,1.2l-2.9-0.1
		l-4.6,1.7l-1.8-0.9l1.4-2.5l0.1-1.8l0.7-1.6l-4.3-1.7l-1-1.4l-1.6,0.6l-1.7-0.1l-0.8-4.6l-2,1.6l-2-0.1l0.4-3.6l3.5-4.1l-0.4-3.5
		l-2.1-0.8l-0.8-2.2l0.5-1.6l-1.2-2.3l-0.3-2.7l2.1-1l-0.1-2.8l-0.9-2l1.4-1.2l-0.6-3.1l-2.4-4.8l-2.2-1.2l-3.1-2.7l-0.6-1.6
		l0.8-2.3l-0.2-2.4l1-4.6l-0.8-1.6l-5.7-5.3l-1.5-1.8l-0.7-1.6l-3.8-4l-2.5-1.7l-2.8-3.9l-1-6.1l-1-2.6l1-1.5l-0.2-2.8l-1.5-2.1
		l2-0.3l-0.1-2.2l-1.6-2.3l-1.6,1.5l-2.1-0.5l-1.3-2.5l-1.2-4.5l-1-1.4l-0.8-2.3l0.5-4l-6.3,0.1l-3.2,3l-1.7-1.5l0.3-1.7l1-2.1
		l-0.8-2.1l0.5-1.6l-2.4-3.9l-2.2-1.4l-2.6,2l-1.3,3.7h-2.9l-2.9,3.7l-0.2,2.3h-3.3l-1.4,3.3l-1.6,1.7l0.9,2.1l-1.6,1.7l0.2,4.7
		l-2.6,1.3l-1.7,1.4l-1.4,3.5l0.2,3.1l-0.3,1.3l-1.9,3.4l-2.1,2.2l-2.3,1.7l-1.4,3.4l0.1,1.8l-2.6,2.7l-2.2-0.9l-1.8,1.4l-6.7-1.7
		l-1.8,1.4l-1.8,0.1l-2-1.3l-0.3-2.7l-1-0.8l-2.2,1l-2.3-0.5l-4.5,2.4l-2.8-0.3l-2.3,1.7l1.5,3.7l-1.6,1.1l-1.2,2.7l-1.5,1.6l-2-0.1
		l-2.1,3.4l-2.2,0.2l-4.7-1.3l-1.9-1.2l-2.3,2.6l-0.2-2l-3,1.9l-0.8,2l-3,0.2l-2.5,1.7l-1.5,2.5l-5.3,4.6l-2.1,0.4l0.6,2.8l-1.4-2.5
		l-2.1-0.6l-1.2,3.5l-2-0.6l-2.7,1.9l1,1.5l0.1,4l3,3.5v5.6l2.1,2l0.7,1.7l1.3,1l-0.2,2.2l-1.8-0.2l-1.1,2l-2.7,3.1l2.4,3.2
		l-1.4,1.9l5,1.9l3.7-0.2l3.8,1l-0.8,2.1l-0.3,3.8l-2.3-0.9l-4.3,5.9l-2.2,0.9l1.8,2.6l2.1,0.5l1.4,2.5l1.5-1.4l1.8-0.2l2.3,1.3
		l-0.5,2l2.6,1.2l-0.8,1.5l1.6-0.3l3.3-1.1l3.5-2.5l-0.9-2.5l2-0.6l1,1.4l2.2-0.5l1.8,0.4l0.8-2.2l1.7-0.1l2.6-0.7l1.2,2.3l1.6,1.1
		l2.3,3l1.8-1.3l2.3,0.7l1.6,1.4l-3.4,2.1h-2.3l4.2,1.3l1.5,0.7l3-1.7l2.8-0.1l1.6,1.6l-0.9,2.1l2.1,0.8l3.1-0.7l1,2l2.1,1.7
		l3.9,1.1l2.7,4.4l-0.1,2.2l6.3,1l1.1,3.4l1.8,1l1.3,2.3v2.7l0.8,1.5l2.7,2.3l-0.3,1.7l-2.1,1.4l-0.6,1.7l4.7,1.9l2.1,2.1l-0.3,3.4
		l0.1,1.8l3.5,2.5l-2.1,2.3l0.1,2l-0.3,0.9l4.7,4.9l1.2,1.8l0.5,1.7l1.4,1.2l0.6,1.6l6.5,6.3l4,0.2l3.4,2.2l5-1.3l0.9-2.7l4.3-1.5
		l1.5,1.7l2.8,0.3l1.5,1.7l4-0.6l2.4,1.2l0.5,5.1l1.2,1.8l2.8-0.8l2-0.9l2.8-0.4l2.1,0.9l2.3,1.5l2-0.7l1.6,0.7l1-2.5l-1.7-1.5
		l0.2-1.7l-0.2-5l2.2-2.2l-2.1-2.6l-1.1-3.1l2.2-5.8l2.4-0.1l3.3,1.4l1.8,1.6l3,0.6l6.7,0.1l2.2-0.8l1.6-1.7l1.6-0.4l0.1-2.3
		l-1.6-1.6l-0.3-1.7l1-2.1l1.6-0.6l0.7-2.2l1.9-1l5.1,0.9l4.9-4.1l-0.9-4l0.9-2.1l2-1.1l0.2-1.8l3.4-0.5l1.6-3.9L472.1,179.725z"/>
	<polyline class="st1" points="472.9,176.125 472.3,175.825 468.9,173.325 466.7,172.525 465,170.725 463.3,171.225 460.2,171.325 
		458.3,167.525 455,168.425 449.7,164.525 453.2,162.425 455.5,162.325 457.2,161.625 457.1,158.525 458.3,153.625 461,151.725 
		463.1,151.025 462.9,149.325 461.5,145.825 458,145.525 456.3,146.025 454.1,145.025 452.5,146.225 449.6,146.125 445,147.825 
		443.2,146.925 444.6,144.425 444.7,142.625 445.4,141.025 441.1,139.325 440.1,137.925 438.5,138.525 436.8,138.425 436,133.825 
		434,135.425 432,135.325 432.4,131.725 435.9,127.625 435.5,124.125 433.4,123.325 432.6,121.125 433.1,119.525 431.9,117.225 
		431.6,114.525 433.7,113.525 433.6,110.725 432.7,108.725 434.1,107.525 433.5,104.425 431.1,99.625 428.9,98.425 425.8,95.725 
		425.2,94.125 426,91.825 425.8,89.425 426.8,84.825 426,83.225 420.3,77.925 418.8,76.125 418.1,74.525 414.3,70.525 411.8,68.825 
		409,64.925 408,58.825 407,56.225 408,54.725 407.8,51.925 406.3,49.825 408.3,49.525 408.2,47.325 406.6,45.025 405,46.525 
		402.9,46.025 401.6,43.525 400.4,39.025 399.4,37.625 398.6,35.325 399.1,31.325 392.8,31.425 389.6,34.425 387.9,32.925 
		388.2,31.225 389.2,29.125 388.4,27.025 388.9,25.425 386.5,21.525 384.3,20.125 381.7,22.125 380.4,25.825 377.5,25.825 
		374.6,29.525 374.4,31.825 371.1,31.825 369.7,35.125 368.1,36.825 369,38.925 367.4,40.625 367.6,45.325 365,46.625 363.3,48.025 
		361.9,51.525 362.1,54.625 361.8,55.925 359.9,59.325 357.8,61.525 355.5,63.225 354.1,66.625 354.2,68.425 351.6,71.125 
		349.4,70.225 347.6,71.625 340.9,69.925 339.1,71.325 337.3,71.425 335.3,70.125 335,67.425 334,66.625 331.8,67.625 329.5,67.125 
		325,69.525 322.2,69.225 319.9,70.925 321.4,74.625 319.8,75.725 318.6,78.425 317.1,80.025 315.1,79.925 313,83.325 310.8,83.525 
		306.1,82.225 304.2,81.025 301.9,83.625 301.7,81.625 298.7,83.525 297.9,85.525 294.9,85.725 292.4,87.425 290.9,89.925 
		285.6,94.525 283.5,94.925 284.1,97.725 282.7,95.225 280.6,94.625 279.4,98.125 277.4,97.525 274.7,99.425 275.7,100.925 
		275.8,104.925 278.8,108.425 278.8,114.025 280.9,116.025 281.6,117.725 282.9,118.725 282.7,120.925 280.9,120.725 279.8,122.725 
		277.1,125.825 279.5,129.025 278.1,130.925 283.1,132.825 286.8,132.625 290.6,133.625 289.8,135.725 289.5,139.525 287.2,138.625 
		282.9,144.525 280.7,145.425 282.5,148.025 284.6,148.525 286,151.025 287.5,149.625 289.3,149.425 291.6,150.725 291.1,152.725 
		293.7,153.925 292.9,155.425 294.5,155.125 297.8,154.025 301.3,151.525 300.4,149.025 302.4,148.425 303.4,149.825 305.6,149.325 
		307.4,149.725 308.2,147.525 309.9,147.425 312.5,146.725 313.7,149.025 315.3,150.125 317.6,153.125 319.4,151.825 321.7,152.525 
		323.3,153.925 319.9,156.025 317.6,156.025 321.8,157.325 323.3,158.025 326.3,156.325 329.1,156.225 330.7,157.825 329.8,159.925 
		331.9,160.725 335,160.025 336,162.025 338.1,163.725 342,164.825 344.7,169.225 344.6,171.425 350.9,172.425 352,175.825 
		353.8,176.825 355.1,179.125 355.1,181.825 355.9,183.325 358.6,185.625 358.3,187.325 356.2,188.725 355.6,190.425 360.3,192.325 
		362.4,194.425 362.1,197.825 362.2,199.625 365.7,202.125 363.6,204.425 363.7,206.425 363.4,207.325 368.1,212.225 369.3,214.025 
		369.8,215.725 371.2,216.925 371.8,218.525 378.3,224.825 382.3,225.025 385.7,227.225 390.7,225.925 391.6,223.225 395.9,221.725 
		397.4,223.425 400.2,223.725 401.7,225.425 405.7,224.825 408.1,226.025 408.6,231.125 409.8,232.925 412.6,232.125 414.6,231.225 
		417.4,230.825 419.5,231.725 421.8,233.225 423.8,232.525 425.4,233.225 426.4,230.725 424.7,229.225 424.9,227.525 424.7,222.525 
		426.9,220.325 424.8,217.725 423.7,214.625 425.9,208.825 428.3,208.725 431.6,210.125 433.4,211.725 436.4,212.325 443.1,212.425 
		445.3,211.625 446.9,209.925 448.5,209.525 448.6,207.225 447,205.625 446.7,203.925 447.7,201.825 449.3,201.225 450,199.025 
		451.9,198.025 457,198.925 461.9,194.825 461,190.825 461.9,188.725 463.9,187.625 464.1,185.825 467.5,185.325 469.1,181.425 
		472.1,179.725 472.9,176.125 	"/>
</g>
<g>
	<path class="st0" d="M314.8,42.225l-3.2-2l-1.5-2.9l-1.2-1.3l-2.9-4.1l-1.1-2.8l0.1-1.8l2.8-2l-0.7-1.6l-3.2-2.5v-3.9l-1.5-3.3
		l-2.2-1.2l-4.5,1.3l-2.9,0.4l-4,3.5l-1.4-3.2l-1.5-1.2l-2.4,0.1l-2.5,3.7l-6.9,2.7l-1.3,2.2l-2.2,0.1l-1.9-1.8l-1.4,2.2l-0.9-1.5
		l-1.5-1.4l-0.7-2.7l-2.7-1.8h-1.8l-0.9-3.3l-1.4-1.1l-1-1.7l-6.2-5.1l-2.8,0.5l-4.6-1.8l-3.3,1.4l-2.1-2.3l-2.5,0.8l-3.2,2.1
		l-2.4,2.2l-1.4-0.9l-1.9,1.4l-2.9,0.7l0.7,2.2l-0.1,3.4l0.5,2.7l1.7,3.6l1,3.1l-2.2,0.1l-1.6,1.6l1.3,2.1l2.2,1.3l0.3,1.9l-1.3,1.1
		l-1.8,0.1l-1.8,3.6l-5.1,1.8l-0.6,4.9l-3.8,0.6l-3,1.4l0.4,2.1l-0.9,1.5l1.4,1l1.5,1.7l-0.7,3.6l-1.9-0.7l-0.2,2.7l-1.5,2.3l-2-1.3
		l-1.1,2l-1.6,0.5l-0.7,2.2l-2.2,1.6l-5.4,0.3l-4.2,2v3l0.5,3.4l-5.5,4.9l-1.3,1.8l0.8,2.1l-3.4,0.6l-1,2l-1.8,0.3l-1.5,1l-3.4,3.6
		l-0.8-2l-3.1,0.5l0.9,2.1l1.3,1.2l1.9,3.8l-0.2,2.3l-0.7,1.7l1.7,0.8l0.2,1.7l-0.5,3.2l1.2,2.3l1.9,0.4l1.7,2.9v2.1l-1.3,1.7
		l1.5,2.3l2.4-0.4l2.4-1.8l3.7-0.2l-0.3,3.7l-3.4,0.8l-2.7,2.1l1.8,0.9l2.1,2.1l-0.5,2.1l1.3,1.2l4.8,1.5l2.4-0.1l0.6,4l2.3,0.8
		l1.2,2l1.5-1.3l3.1,1.6l0.6-2.7l2.1,0.5l1.2-1.2l2.2-0.9l-0.7,4l1,1.6l-2.3,1.7l-0.4,2.9l2.6,1.2l4.3,0.4l2.3,4.1l1.7-2.5l10.1-6.4
		l0.3-1.8l2.4-3l1.6,1.9l2.7-0.1l2.1,6.2l2.4,1.3l4.1-2.3l0.2-2.7l-0.5-1.7l-1.5-1.6l1.4-1.1l1.5-2.8l1.8,1l1.8-0.3l-0.2,3.3
		l3.5,0.8l0.8-1.6l-1.6-2.3h1.7l1,2.4l1.5-2.6l3.8-2.7l3.7-0.6l1-1.4l2.3,0.5l2.8,1.2l1.1-2l1.8-1.5l0.9,1.5l1.6,0.8l1-2l1.6-0.4
		l4.3-0.4l1.1-2l1.8,0.2l0.3-2.1l-1.4-1.1l-0.7-1.7l-2.1-2v-5.6l-3-3.5l-0.1-4l-1-1.5l2.7-1.9l2,0.6l1.3-3.5l2.1,0.6l1.4,2.6
		l-0.7-2.9l2.1-0.4l5.3-4.6l1.5-2.5l2.5-1.7l3-0.2l0.9-2l2.9-1.9l0.2,2l2.3-2.6l1.9,1.2l4.7,1.3l2.3-0.2l2.1-3.4l1.9,0.1l1.5-1.6
		l1.2-2.6l-3.8-3.4l-0.8-2.1l-0.5-2.4l1.7-2.2l-2.5-3.9l-3.5-0.4l0.4-1.7l1.8-2.3l0.7-5.1l-0.5-2.9l1.8-0.5l0.9-3L314.8,42.225z"/>
	<polyline class="st1" points="311.6,40.225 310.1,37.325 308.9,36.025 306,31.925 304.9,29.125 305,27.325 307.8,25.325 
		307.1,23.725 303.9,21.225 303.9,17.325 302.4,14.025 300.2,12.825 295.7,14.125 292.8,14.525 288.8,18.025 287.4,14.825 
		285.9,13.625 283.5,13.725 281,17.425 274.1,20.125 272.8,22.325 270.6,22.425 268.7,20.625 267.3,22.825 266.4,21.325 
		264.9,19.925 264.2,17.225 261.5,15.425 259.7,15.425 258.8,12.125 257.4,11.025 256.4,9.325 250.2,4.225 247.4,4.725 242.8,2.925 
		239.5,4.325 237.4,2.025 234.9,2.825 231.7,4.925 229.3,7.125 227.9,6.225 226,7.625 223.1,8.325 223.8,10.525 223.7,13.925 
		224.2,16.625 225.9,20.225 226.9,23.325 224.7,23.425 223.1,25.025 224.4,27.125 226.6,28.425 226.9,30.325 225.6,31.425 
		223.8,31.525 222,35.125 216.9,36.925 216.3,41.825 212.5,42.425 209.5,43.825 209.9,45.925 209,47.425 210.4,48.425 211.9,50.125 
		211.2,53.725 209.3,53.025 209.1,55.725 207.6,58.025 205.6,56.725 204.5,58.725 202.9,59.225 202.2,61.425 200,63.025 
		194.6,63.325 190.4,65.325 190.4,68.325 190.9,71.725 185.4,76.625 184.1,78.425 184.9,80.525 181.5,81.125 180.5,83.125 
		178.7,83.425 177.2,84.425 173.8,88.025 173,86.025 169.9,86.525 170.8,88.625 172.1,89.825 174,93.625 173.8,95.925 173.1,97.625 
		174.8,98.425 175,100.125 174.5,103.325 175.7,105.625 177.6,106.025 179.3,108.925 179.3,111.025 178,112.725 179.5,115.025 
		181.9,114.625 184.3,112.825 188,112.625 187.7,116.325 184.3,117.125 181.6,119.225 183.4,120.125 185.5,122.225 185,124.325 
		186.3,125.525 191.1,127.025 193.5,126.925 194.1,130.925 196.4,131.725 197.6,133.725 199.1,132.425 202.2,134.025 202.8,131.325 
		204.9,131.825 206.1,130.625 208.3,129.725 207.6,133.725 208.6,135.325 206.3,137.025 205.9,139.925 208.5,141.125 212.8,141.525 
		215.1,145.625 216.8,143.125 226.9,136.725 227.2,134.925 229.6,131.925 231.2,133.825 233.9,133.725 236,139.925 238.4,141.225 
		242.5,138.925 242.7,136.225 242.2,134.525 240.7,132.925 242.1,131.825 243.6,129.025 245.4,130.025 247.2,129.725 247,133.025 
		250.5,133.825 251.3,132.225 249.7,129.925 251.4,129.925 252.4,132.325 253.9,129.725 257.7,127.025 261.4,126.425 262.4,125.025 
		264.7,125.525 267.5,126.725 268.6,124.725 270.4,123.225 271.3,124.725 272.9,125.525 273.9,123.525 275.5,123.125 279.8,122.725 
		280.9,120.725 282.7,120.925 283,118.825 281.6,117.725 280.9,116.025 278.8,114.025 278.8,108.425 275.8,104.925 275.7,100.925 
		274.7,99.425 277.4,97.525 279.4,98.125 280.7,94.625 282.8,95.225 284.2,97.825 283.5,94.925 285.6,94.525 290.9,89.925 
		292.4,87.425 294.9,85.725 297.9,85.525 298.8,83.525 301.7,81.625 301.9,83.625 304.2,81.025 306.1,82.225 310.8,83.525 
		313.1,83.325 315.2,79.925 317.1,80.025 318.6,78.425 319.8,75.825 316,72.425 315.2,70.325 314.7,67.925 316.4,65.725 
		313.9,61.825 310.4,61.425 310.8,59.725 312.6,57.425 313.3,52.325 312.8,49.425 314.6,48.925 315.5,45.925 314.8,42.225 
		311.6,40.225 	"/>
</g>
<g>
	<path class="st0" d="M193.4,126.825l-2.4,0.1l-4.8-1.5l-1.3-1.1l0.5-2.2l-2.1-2l-1.8-0.9l2.8-2.1l3.4-0.9l0.2-3.7l-3.7,0.3
		l-2.4,1.7l-2.3,0.5l-0.5,2.1l-1.6,0.6l-2.8-0.8l-2.4,0.2l-2.7,1l-4-0.1l-1.1,2.6l-0.5-4.2l-1.6-1.6l-1.6-0.9l-2.1,1.7l-0.1,2.9
		l0.3,1.7l-2.9,3.8l-0.5,2.4l1.8,0.3l1.3,1.9l2.7-0.8l0.8,1.7l3.3,2.9l-1.3,1.9l-1.6-0.6l0.6,2.8l-1.7,2.2l1.2,1.4l-3.3,6.8
		l-5.3-0.6l-0.9,3.1l2.1,1l2.3,0.4l-0.2,3.1l0.5,2l-1.5,0.9l-2.8,0.7l-4.6-2.8h-4l1.2,2.1v3.5l-2.8-1.2l-2.6,2l-1.9,4.5l0.1,2.3
		l2.1,2.4l-0.3,1.8l0.9,1.9l7.2-4.3l1.8,1.5l1.8-0.1l0.8,2.2l-2,1.6l-2.8-0.5l-0.3,3.2l0.8,2.5l-8,9.5l1,2.8l5-1.7l1.3,1.3l3.6,1.4
		l1.9-1l1.3,1.8l1.7,1.5l1.9,1l-2.8,2.2l0.3,2.3l1.9,1.5l1.4,2.6l-2.2,1.4l3.7,1.4l-2.4,3.6l-1.2,3l1,1.6l2.4-1.2l3.6,0.7l3.6-0.4
		l2.2-1.3l4.5-0.7l2.8,0.8l2.9-2.9l4,3.1l1.4-1.9l2-1.1l1.9-0.4l0.7,1.6l1.5,0.8l0.9,1.8l4.1,0.6l-1.1,2.3l8.7-1.9l-1.3-1.6l1.8,0.4
		l2.2-0.6l3.4-1.5l2.1-0.3l2.1-1l-0.7-3.4l-2.8-0.2l-2.1,0.7l-1.4-1.8l2-2.5l2,1.2l2.9-0.1l-1.1-3.4l0.8-1.8l4.4,0.3l2.1-0.2
		l2.8,2.3l2.2-0.1l3.5-6.5l1.3,1.1l1.1,2.3l2.3-2.9l5.1-2.1l1.7,0.1l1-3.5l-1.4-1l-3.3-0.5l-0.5-2.2l3.9-0.9l2.8,0.8h4.1l-0.5-2.1
		l2.3-3.6l2.2,0.2l-0.3-3.1l4.7-2l1.8-3.6l-1.3-2.7l-3.6-2l0.6-2.8l-1.9-1.5l0.7-3.4l3.8,0.7l1.7-0.6l2.3-0.4l1.2,1.2l1.6-0.7
		l2.3,1.4l1.8,1.9l1.8-0.5l1.6-4.6l2.4,3.3l1.5,0.8l0.4-1.9l-1.3-3.1l0.8-2l1.7,1.5l1.8-1.4l2.2,0.8l3.9,0.5l0.5-0.7l-2.9-2.7l3-1.2
		l1.7,1.2l1.1,1.4l1.7-0.1l1.6,0.7l2.7-0.9l0.8-1.5l-2.6-1.1l0.5-2l-2.4-1.3l-1.7,0.2l-1.5,1.4l-1.4-2.5l-2.1-0.5l-1.8-2.6l2.2-0.9
		l4.2-6l2.3,1l0.4-3.9l0.8-2l-3.8-1l-3.7,0.1l-5-1.8l1.3-1.9l-2.3-3.2l2.6-3.1l-4.3,0.4l-1.6,0.4l-0.9,2l-1.6-0.8l-0.9-1.5l-1.8,1.5
		l-1.2,2l-2.7-1.2l-2.3-0.6l-1,1.5l-3.8,0.5l-3.8,2.8l-1.4,2.5l-1.1-2.3l-1.7-0.1l1.6,2.4l-0.7,1.6l-3.6-0.8l0.2-3.3l-1.7,0.2
		l-1.8-0.9l-1.5,2.8l-1.4,1.1l1.5,1.6l0.4,1.7l-0.2,2.7l-4.1,2.2l-2.3-1.2l-2.2-6.2l-2.6,0.1l-1.7-2l-2.3,3.1l-0.4,1.7l-10.1,6.5
		l-1.6,2.4l-2.3-4.1l-4.4-0.3l-2.6-1.2l0.4-2.9l2.3-1.7l-1-1.7l0.7-3.9l-2.1,0.9l-1.3,1.2l-2.1-0.6l-0.6,2.8l-3-1.7l-1.6,1.3
		l-1.2-1.9l-2.3-0.8L193.4,126.825z"/>
	<polyline class="st1" points="191,126.925 186.2,125.425 184.9,124.325 185.4,122.125 183.3,120.125 181.5,119.225 184.3,117.125 
		187.7,116.225 187.9,112.525 184.2,112.825 181.8,114.525 179.5,115.025 179,117.125 177.4,117.725 174.6,116.925 172.2,117.125 
		169.5,118.125 165.5,118.025 164.4,120.625 163.9,116.425 162.3,114.825 160.7,113.925 158.6,115.625 158.5,118.525 158.8,120.225 
		155.9,124.025 155.4,126.425 157.2,126.725 158.5,128.625 161.2,127.825 162,129.525 165.3,132.425 164,134.325 162.4,133.725 
		163,136.525 161.3,138.725 162.5,140.125 159.2,146.925 153.9,146.325 153,149.425 155.1,150.425 157.4,150.825 157.2,153.925 
		157.7,155.925 156.2,156.825 153.4,157.525 148.8,154.725 144.8,154.725 146,156.825 146,160.325 143.2,159.125 140.6,161.125 
		138.7,165.625 138.8,167.925 140.9,170.325 140.6,172.125 141.5,174.025 148.7,169.725 150.5,171.225 152.3,171.125 153.1,173.325 
		151.1,174.925 148.3,174.425 148,177.625 148.8,180.125 140.8,189.625 141.8,192.425 146.8,190.725 148.1,192.025 151.7,193.425 
		153.6,192.425 154.9,194.225 156.6,195.725 158.5,196.725 155.7,198.925 156,201.225 157.9,202.725 159.3,205.325 157.1,206.725 
		160.8,208.125 158.4,211.725 157.2,214.725 158.2,216.325 160.6,215.125 164.2,215.825 167.8,215.425 170,214.125 174.5,213.425 
		177.3,214.225 180.2,211.325 184.2,214.425 185.6,212.525 187.6,211.425 189.5,211.025 190.2,212.625 191.7,213.425 192.6,215.225 
		196.7,215.825 195.6,218.125 204.3,216.225 203,214.625 204.8,215.025 207,214.425 210.4,212.925 212.5,212.625 214.6,211.625 
		213.9,208.225 211.1,208.025 209,208.725 207.6,206.925 209.6,204.425 211.6,205.625 214.5,205.525 213.4,202.125 214.2,200.325 
		218.6,200.625 220.7,200.425 223.5,202.725 225.7,202.625 229.2,196.125 230.5,197.225 231.6,199.525 233.9,196.625 239,194.525 
		240.7,194.625 241.7,191.125 240.3,190.125 237,189.625 236.5,187.425 240.4,186.525 243.2,187.325 247.3,187.325 246.8,185.225 
		249.1,181.625 251.3,181.825 251,178.725 255.7,176.725 257.5,173.125 256.2,170.425 252.6,168.425 253.2,165.625 251.3,164.125 
		252,160.725 255.8,161.425 257.5,160.825 259.8,160.425 261,161.625 262.6,160.925 264.9,162.325 266.7,164.225 268.5,163.725 
		270.1,159.125 272.5,162.425 274,163.225 274.4,161.325 273.1,158.225 273.9,156.225 275.6,157.725 277.4,156.325 279.6,157.125 
		283.5,157.625 284,156.925 281.1,154.225 284.1,153.025 285.8,154.225 286.9,155.625 288.6,155.525 290.2,156.225 292.9,155.325 
		293.7,153.825 291.1,152.725 291.6,150.725 289.2,149.425 287.5,149.625 286,151.025 284.6,148.525 282.5,148.025 280.7,145.425 
		282.9,144.525 287.1,138.525 289.4,139.525 289.8,135.625 290.6,133.625 286.8,132.625 283.1,132.725 278.1,130.925 279.4,129.025 
		277.1,125.825 279.7,122.725 275.4,123.125 273.8,123.525 272.9,125.525 271.3,124.725 270.4,123.225 268.6,124.725 267.4,126.725 
		264.7,125.525 262.4,124.925 261.4,126.425 257.6,126.925 253.8,129.725 252.4,132.225 251.3,129.925 249.6,129.825 251.2,132.225 
		250.5,133.825 246.9,133.025 247.1,129.725 245.4,129.925 243.6,129.025 242.1,131.825 240.7,132.925 242.2,134.525 242.6,136.225 
		242.4,138.925 238.3,141.125 236,139.925 233.8,133.725 231.2,133.825 229.5,131.825 227.2,134.925 226.8,136.625 216.7,143.125 
		215.1,145.525 212.8,141.425 208.4,141.125 205.8,139.925 206.2,137.025 208.5,135.325 207.5,133.625 208.2,129.725 206.1,130.625 
		204.8,131.825 202.7,131.225 202.1,134.025 199.1,132.325 197.5,133.625 196.3,131.725 194,130.925 193.4,126.825 191,126.925 	"/>
</g>
<g>
	<path class="st0" d="M313.6,149.025l-1.2-2.3l-2.6,0.8h-1.7l-0.8,2.2l-1.8-0.4l-2.1,0.5l-1-1.4l-2,0.6l0.9,2.5l-3.5,2.5l-3.3,1.1
		l-1.6,0.3l-2.7,0.8l-1.6-0.7l-1.8,0.1l-1-1.4l-1.7-1.2l-3,1.2l2.9,2.7l-0.6,0.7l-3.8-0.4l-2.2-0.9l-1.8,1.4l-1.7-1.5l-0.8,2
		l1.3,3.1l-0.5,1.9l-1.5-0.8l-2.3-3.2l-1.7,4.5l-1.7,0.5l-1.8-1.9l-2.3-1.4l-1.6,0.8l-1.2-1.2l-2.4,0.3l-1.6,0.6l-3.8-0.7l-0.7,3.4
		l1.9,1.5l-0.6,2.8l3.6,2l1.2,2.7l-1.7,3.6l-4.7,2l0.2,3.2l-2.1-0.3l-2.3,3.7l0.5,2.1h-4.1l-2.8-0.9l-3.9,0.9l0.4,2.2l3.4,0.5l1.4,1
		l-1,3.5H239l-1.1,3.1l0.4,1.7l1.1,1.3l1.5,5.8l2.4,0.9l-0.5,4.4l4.6,2.8l2.4,0.2l0.8,4.2l-0.2,4.1l1.2,1.7l2.4,1.1l1.6,1l1.7,2.3
		l-1.7,1.1l-1.7,1.5l-2.2-0.8l0.3,2l7.1,1l-0.1,2.3l1.2,1.9l-3.5,2.2l-1.8,3.5l2.3,1.6l2,0.8l2.2,1.8l2.7,0.7l1.3,1.7l2.5,1.5
		l2.2,0.8l3.5,0.2l1.3,1.8l0.2,3.1l3.6,1.6l1,4l3.5,2.6l5,1.4l2.1,1l1.7,1.5l3.1-0.8v-4l2.8,1.2l1-1.8l0.7,2.2v2.1l-1.2,1.4
		l-2.5,1.3l0.4,4.1l0.8,1.5l3.1,1.2l2,3.9l0.4,2l2.3,0.3h2.2l5.9-3.5l1.8-0.2l1.6,3.1l3.9,2.7l1.8-4.5l-0.7-1.6l-0.1-1.8l4.2-4.4
		l3.2,2.1l2.2-0.9l1.8,1l4.3,1.4l3.3,1.7l2.9,1l1.2-1.4l2.4-1.6l3,0.4l2.3-0.5l0.5-0.2l2.6-0.1l3,2.2l3.7-0.1l2.1,0.3l1.7-0.1
		l2.9-1.4l0.8-1.6l7.4-5l-1.3-1.9l-0.3-2.2l0.5-1.6l-0.1-2.4l2.1,0.6l-5.5-5.9l-1.9-2.9l1.8-3.1l-1.1-1.5l2.9-11.7l1,1.8l1.6,0.1
		l2.2-0.8l4.8,1.9l2.2,2.6l0.7,1.7l6.9-2.1l1.6-1.7l1.7,0.3l2-1.2l3-0.1l1.9-2.1l2.9,0.4l1.3-1.2l0.1-4.3l2-1.4l-1.2-1.8l-0.5-5.1
		l-2.4-1.2l-4,0.6l-1.5-1.7l-2.8-0.3l-1.5-1.7l-4.3,1.5l-0.9,2.7l-5.1,1.4l-3.4-2.3l-3.9-0.2l-6.6-6.3l-0.6-1.6l-1.3-1.2l-0.6-1.7
		l-1.1-1.8l-4.7-4.9l0.3-0.8l-0.1-2.1l2-2.3l-3.5-2.5l-0.1-1.8l0.3-3.3l-2-2.2l-4.7-1.9l0.5-1.7l2.2-1.4l0.2-1.7l-2.6-2.3l-0.9-1.5
		l0.1-2.7l-1.3-2.3l-1.9-1l-1.1-3.4l-6.2-1l0.1-2.2l-2.7-4.4l-3.9-1.1l-2.1-1.7l-1-2l-3.1,0.7l-2.1-0.8l0.9-2.1l-1.6-1.6l-2.8,0.1
		l-3,1.8l-1.6-0.8l-4.2-1.3h2.3l3.5-2.1l-1.7-1.4l-2.2-0.6l-1.8,1.2l-2.4-3L313.6,149.025z"/>
	<polyline class="st1" points="312.4,146.725 309.8,147.525 308.1,147.525 307.3,149.725 305.5,149.325 303.4,149.825 
		302.4,148.425 300.4,149.025 301.3,151.525 297.8,154.025 294.5,155.125 292.9,155.425 290.2,156.225 288.6,155.525 286.8,155.625 
		285.8,154.225 284.1,153.025 281.1,154.225 284,156.925 283.4,157.625 279.6,157.225 277.4,156.325 275.6,157.725 273.9,156.225 
		273.1,158.225 274.4,161.325 273.9,163.225 272.4,162.425 270.1,159.225 268.4,163.725 266.7,164.225 264.9,162.325 262.6,160.925 
		261,161.725 259.8,160.525 257.4,160.825 255.8,161.425 252,160.725 251.3,164.125 253.2,165.625 252.6,168.425 256.2,170.425 
		257.4,173.125 255.7,176.725 251,178.725 251.2,181.925 249.1,181.625 246.8,185.325 247.3,187.425 243.2,187.425 240.4,186.525 
		236.5,187.425 236.9,189.625 240.3,190.125 241.7,191.125 240.7,194.625 239,194.625 237.9,197.725 238.3,199.425 239.4,200.725 
		240.9,206.525 243.3,207.425 242.8,211.825 247.4,214.625 249.8,214.825 250.6,219.025 250.4,223.125 251.6,224.825 254,225.925 
		255.6,226.925 257.3,229.225 255.6,230.325 253.9,231.825 251.7,231.025 252,233.025 259.1,234.025 259,236.325 260.2,238.225 
		256.7,240.425 254.9,243.925 257.2,245.525 259.2,246.325 261.4,248.125 264.1,248.825 265.4,250.525 267.9,252.025 270.1,252.825 
		273.6,253.025 274.9,254.825 275.1,257.925 278.7,259.525 279.7,263.525 283.2,266.125 288.2,267.525 290.3,268.525 292,270.025 
		295.1,269.225 295.1,265.225 297.9,266.425 298.9,264.625 299.6,266.825 299.6,268.925 298.4,270.325 295.9,271.625 296.3,275.725 
		297.1,277.225 300.2,278.425 302.2,282.325 302.6,284.325 304.9,284.625 307.1,284.625 313,281.125 314.8,280.925 316.4,284.025 
		320.3,286.725 322.1,282.225 321.4,280.625 321.3,278.825 325.5,274.425 328.7,276.525 330.9,275.625 332.7,276.625 337,278.025 
		340.3,279.725 343.2,280.725 344.4,279.325 346.8,277.725 349.8,278.125 352.1,277.625 352.6,277.425 355.2,277.325 358.2,279.525 
		361.9,279.425 364,279.725 365.7,279.625 368.6,278.225 369.4,276.625 376.8,271.625 375.5,269.725 375.2,267.525 375.7,265.925 
		375.6,263.525 377.7,264.125 372.2,258.225 370.3,255.325 372.1,252.225 371,250.725 373.9,239.025 374.9,240.825 376.5,240.925 
		378.7,240.125 383.5,242.025 385.7,244.625 386.4,246.325 393.3,244.225 394.9,242.525 396.6,242.825 398.6,241.625 401.6,241.525 
		403.5,239.425 406.4,239.825 407.7,238.625 407.8,234.325 409.8,232.925 408.6,231.125 408.1,226.025 405.7,224.825 401.7,225.425 
		400.2,223.725 397.4,223.425 395.9,221.725 391.6,223.225 390.7,225.925 385.6,227.325 382.2,225.025 378.3,224.825 371.7,218.525 
		371.1,216.925 369.8,215.725 369.2,214.025 368.1,212.225 363.4,207.325 363.7,206.525 363.6,204.425 365.6,202.125 362.1,199.625 
		362,197.825 362.3,194.525 360.3,192.325 355.6,190.425 356.1,188.725 358.3,187.325 358.5,185.625 355.9,183.325 355,181.825 
		355.1,179.125 353.8,176.825 351.9,175.825 350.8,172.425 344.6,171.425 344.7,169.225 342,164.825 338.1,163.725 336,162.025 
		335,160.025 331.9,160.725 329.8,159.925 330.7,157.825 329.1,156.225 326.3,156.325 323.3,158.125 321.7,157.325 317.5,156.025 
		319.8,156.025 323.3,153.925 321.6,152.525 319.4,151.925 317.6,153.125 315.2,150.125 313.6,149.025 312.4,146.725 	"/>
</g>
<g>
	<path class="st0" d="M140.2,278.825H138l0.3,2l-1.5,4l-1.5,1.6l-2-1.2l-5.2,7.8l-2.4,2.5l-1.6,0.8l-4.7,0.2l3.2,1.7l-1.7,1.8
		l-0.5,1.7l-2.4,1.2l-5.8,6.3l2.7,0.5l-0.4,2.7l-2.3,1.3l-2.3,0.2l-2-0.8l-1.5,2.1l1.9,1.1l-2.9,3.3l-5.1,4.3l-2.2,2.9l1.6,0.9
		l1.1,1.3l-1.4,1l4.6-0.3l1.3,1.3l0.5,2.1l2.2,0.6l1.2,1.4l3.9,1.8l-0.6,1.9l0.9,4.4l-2.3-1.2l-1.7,1.2l-1.1,4.7l1.8,1.4l2.5-2.5
		l3.1-1.2l1-1.9l1.8,0.2l2.1,5.4v1.9l-1.9,0.5l1.1,2.7l2,0.7l0.9,0.9l-0.2,1.8l-5.3,4.2l-0.4,1.7l-2.4,6l-0.5,2l-1.8,1.7l-1.9-0.7
		l-1.6,0.5l-7.1-3.1l-0.7,1.6v1.7l-1.5,1.2l0.4,2.1l-0.7,2.7l0.3,5.9l-0.9,1.5l0.9,3.6l-0.3,2.3l-1.4,2.2l3.8,3.7l-0.6,2.1l2,1.2
		l2.9,0.3l1.7-1.9l7.3,1.5l1.2-1.8l3.1,1.8l6.5,0.9l1-2.7l-0.7-1.8l-0.6-2.6l-1.2-3.4l-2.2-0.5l2.9-3.3l-1.5-2.2l2.3-2.7l-0.6-2
		l0.6-1.6l-1.3-1.9l2.5-3.4l1.6,0.1l2.2-1l2.8,1l1.1,1.3l4.9,2.2l2.9-0.7l4.1,2.2l3,0.5l0.2-2.2l-1.4-4.6l-1.6-1.5l1-2.7l-1-2
		l-0.9-2.5l1.8-1.2l4.1-0.6l1.5-1.5l-1.2-3.8l4.7-0.2l1.9-1.2l4.7-0.6l1.8-0.6l2.1-2.8l1.4-2.6l2.1-0.6l-1.8-1.5l-2.4-0.8l-0.5-3.8
		l0.2-3l-0.9-1.7l2.7-0.6l-1-2.6l1.6-2.3l4.3,0.9l1.7-3.3l0.4-4.5l4.3,1.1l3-1.4l1.5-1.4l2.7,3.1l2.1,1.2l1.6-1.5l2.9,2.7l3,6.8
		l2.8-0.4l2.1-0.5l-0.2-2.8l2.7-0.8l2.6-1.6l-3.5-4.5h-2.3l-2.2-0.3l-2.8-1.8l3.1-4.9l1.7,0.9l2.4-2l3,1.1l2.3-0.1l1.7-2.4l3.6-1.4
		l1.7,0.4l1.2-2l-0.6-2.8l-4.7-1.7l-2.3-0.5l1.4-1.1l-3.5-2.7l-1.1-2.6l3.1-1.5l1.8-2.8l1.8-0.3l3.4,1l0.8,3.6l2.8,2l3,4.3l-1.2,4.4
		l3,1.9l2.9,1l1.4-1.1l1.4-1.6l2.2,0.2l-1.5-2l1.6-2.1l-1.5-2.4l0.5-5.1l2.4,1.5l0.8,2.4l2.4-0.9l1.9,2.1l1.9,0.6l0.9-2.5l2.7,1.5
		l4.1,1.7l0.2,3.3l2.5-1.2l-0.6-2.7l2.9-3.6l1.9,1.3l1.6-1.3l0.3-3.7l4-2.2l-1.1-2.8l1.1-0.9l1.8-2l2.9,2.2l1.6-1.4l1.4,0.8l2.1-0.2
		v-1.7l-1-1.4l0.9-5.8l1.7-0.1l-0.5-0.8l-0.5-2l1.1-1.2l2.3-0.8l-0.3-1.7l1.8-1.9l5.1,5l0.7,3.5l1.4-1.1l2.3-3.9l1.7,0.5l2.1-0.3
		l3.4,2.3l2.7-1l1.1-1.4l2.2-0.4l-2-3.5l-0.4-4.1l2.4-1.3l1.2-1.4v-2.1l-0.7-2.2l-1,1.8l-2.8-1.2l0.1,4l-3.1,0.8l-1.7-1.5l-2.1-1
		l-5-1.3l-3.6-2.7l-0.9-4l-3.7-1.6l-0.2-3.1l-1.2-1.7l-3.6-0.3l-2.1-0.8l-2.6-1.5l-1.2-1.7l-2.8-0.7l-2.1-1.8l-2.1-0.8l-2.3-1.6
		l1.9-3.5l3.5-2.2l-1.2-1.9v-2.3l-7.1-1l-0.3-2l2.2,0.8l3.5-2.6l-1.7-2.3l-1.7-1l-2.4-1.1l-1.2-1.7l0.2-4.1l-0.8-4.2l-2.4-0.2
		l-4.5-2.8l0.5-4.4l-2.4-0.9l-1.6-5.8l-1-1.3l-0.4-1.7l1-3.1l-5,2l-2.4,3l-1.1-2.4l-1.2-1.1l-3.6,6.5l-2.2,0.1l-2.8-2.3l-2.1,0.2
		l-4.4-0.2l-0.8,1.8l1.1,3.4l-2.9,0.1l-2-1.2l-2,2.4l1.4,1.9l2.1-0.7l2.8,0.2l0.7,3.3l-2.1,1.1l-2.1,0.2l-3.4,1.5l-2.1,0.7l-1.9-0.5
		l1.3,1.6l-8.7,1.9l1.1-2.2l-4.1-0.7l-0.9-1.8l-1.5-0.8l-0.7-1.5l-1.8,0.3l-2.1,1.2l-1.4,1.9l-4-3.2l-2.9,2.9l-2.8-0.8l-4.5,0.7
		l-2.2,1.3l-3.6,0.5l0.6,2.6l0.8,2.2l2.5,2.7l3.2,2.8l1.5,2.6l2,0.1l3,2.1l-1,5l2,1.6l3.3,0.3l-0.8,3.1l2.5,1l1.9-1l2.1,1.3
		l-0.6,2.4l3.5,2.5l1.2-1.2l0.9,1.4l1.5,1.7l-0.2,4.6l-4.6-0.9l-0.7,2.9l-3.9,0.4l-1,1.5l-1.6,1.5l-1.7-1.1l-2-0.7l-3.1,0.9l3.2,2.5
		l-2.1,0.1l-0.6,1.8l0.5,1.9l-1.1,2.5l-1.7,0.5l-2.4,2.2l2.9,2.2l-1,2.3l-1.9,2.8l1.1,1.8l-3,1.1l-1.3,1.1l0.9,2.8l0.4,1.9l-1.5,2.2
		l-1.6,0.6l-2-1.5l-0.1-2.6l-2,0.2l-2.5-1.7l-1.2-1.9l-1.9,0.1l-4.6-1.9l-2.6,1l-2.8-1.3l-1.8,2.9L140.2,278.825z"/>
	<polyline class="st1" points="138,278.825 138.3,280.825 136.8,284.825 135.3,286.425 133.3,285.225 128.1,293.025 125.7,295.525 
		124.1,296.325 119.4,296.525 122.6,298.225 120.9,300.025 120.4,301.725 118,302.925 112.2,309.225 114.9,309.725 114.5,312.425 
		112.2,313.725 109.9,313.925 107.9,313.125 106.4,315.225 108.3,316.325 105.4,319.625 100.3,323.925 98.1,326.825 99.7,327.725 
		100.8,329.025 99.4,330.025 104,329.725 105.3,331.025 105.8,333.125 108,333.725 109.2,335.125 113.1,336.925 112.5,338.825 
		113.4,343.225 111.1,342.025 109.4,343.225 108.3,347.925 110.1,349.325 112.6,346.825 115.7,345.625 116.7,343.725 118.5,343.925 
		120.6,349.325 120.6,351.225 118.7,351.725 119.8,354.425 121.8,355.125 122.7,356.025 122.5,357.825 117.2,362.025 116.8,363.725 
		114.4,369.725 113.9,371.725 112.1,373.425 110.2,372.725 108.6,373.225 101.5,370.125 100.8,371.725 100.8,373.425 99.3,374.625 
		99.7,376.725 99,379.425 99.3,385.325 98.4,386.825 99.3,390.425 99,392.725 97.6,394.925 101.4,398.625 100.8,400.725 
		102.8,401.925 105.7,402.225 107.4,400.325 114.7,401.825 115.9,400.025 119,401.825 125.5,402.725 126.5,400.025 125.8,398.225 
		125.2,395.625 124,392.225 121.8,391.725 124.7,388.425 123.2,386.225 125.5,383.525 124.9,381.525 125.5,379.925 124.2,378.025 
		126.7,374.625 128.3,374.725 130.5,373.725 133.3,374.725 134.4,376.025 139.3,378.225 142.2,377.525 146.3,379.725 149.3,380.225 
		149.5,378.025 148.1,373.425 146.5,371.925 147.5,369.225 146.5,367.225 145.6,364.725 147.4,363.525 151.5,362.925 153,361.425 
		151.8,357.625 156.5,357.425 158.4,356.225 163.1,355.625 164.9,355.025 167,352.225 168.4,349.625 170.5,349.025 168.7,347.525 
		166.3,346.725 165.8,342.925 166,339.925 165.1,338.225 167.8,337.625 166.8,335.025 168.4,332.725 172.7,333.625 174.4,330.325 
		174.8,325.825 179.1,326.925 182.1,325.525 183.6,324.125 186.3,327.225 188.4,328.425 190,326.925 192.9,329.625 195.9,336.425 
		198.7,336.025 200.8,335.525 200.6,332.725 203.3,331.925 205.9,330.325 202.4,325.825 200.1,325.825 197.9,325.525 195.1,323.725 
		198.2,318.825 199.9,319.725 202.3,317.725 205.3,318.825 207.6,318.725 209.3,316.325 212.9,314.925 214.6,315.325 215.8,313.325 
		215.2,310.525 210.5,308.825 208.2,308.325 209.6,307.225 206.1,304.525 205,301.925 208.1,300.425 209.9,297.625 211.7,297.325 
		215.1,298.325 215.9,301.925 218.7,303.925 221.7,308.225 220.5,312.625 223.5,314.525 226.4,315.525 227.8,314.425 229.2,312.825 
		231.4,313.025 229.9,311.025 231.5,308.925 230,306.525 230.5,301.425 232.9,302.925 233.7,305.325 236.1,304.425 238,306.525 
		239.9,307.125 240.8,304.625 243.5,306.125 247.6,307.825 247.8,311.125 250.3,309.925 249.7,307.225 252.6,303.625 254.5,304.925 
		256.1,303.625 256.4,299.925 260.4,297.725 259.3,294.925 260.4,294.025 262.2,292.025 265.1,294.225 266.7,292.825 268.1,293.625 
		270.2,293.425 270.2,291.725 269.2,290.325 270.1,284.525 271.8,284.425 271.3,283.625 270.8,281.625 271.9,280.425 274.2,279.625 
		273.9,277.925 275.7,276.025 280.8,281.025 281.5,284.525 282.9,283.425 285.2,279.525 286.9,280.025 289,279.725 292.4,282.025 
		295.1,281.025 296.2,279.625 298.4,279.225 296.4,275.725 296,271.625 298.4,270.325 299.6,268.925 299.6,266.825 298.9,264.625 
		297.9,266.425 295.1,265.225 295.2,269.225 292.1,270.025 290.4,268.525 288.3,267.525 283.3,266.225 279.7,263.525 278.8,259.525 
		275.1,257.925 274.9,254.825 273.7,253.125 270.1,252.825 268,252.025 265.4,250.525 264.2,248.825 261.4,248.125 259.3,246.325 
		257.2,245.525 254.9,243.925 256.8,240.425 260.3,238.225 259.1,236.325 259.1,234.025 252,233.025 251.7,231.025 253.9,231.825 
		257.4,229.225 255.7,226.925 254,225.925 251.6,224.825 250.4,223.125 250.6,219.025 249.8,214.825 247.4,214.625 242.9,211.825 
		243.4,207.425 241,206.525 239.4,200.725 238.4,199.425 238,197.725 239,194.625 234,196.625 231.6,199.625 230.5,197.225 
		229.3,196.125 225.7,202.625 223.5,202.725 220.7,200.425 218.6,200.625 214.2,200.425 213.4,202.225 214.5,205.625 211.6,205.725 
		209.6,204.525 207.6,206.925 209,208.825 211.1,208.125 213.9,208.325 214.6,211.625 212.5,212.725 210.4,212.925 207,214.425 
		204.9,215.125 203,214.625 204.3,216.225 195.6,218.125 196.7,215.925 192.6,215.225 191.7,213.425 190.2,212.625 189.5,211.125 
		187.7,211.425 185.6,212.625 184.2,214.525 180.2,211.325 177.3,214.225 174.5,213.425 170,214.125 167.8,215.425 164.2,215.925 
		164.8,218.525 165.6,220.725 168.1,223.425 171.3,226.225 172.8,228.825 174.8,228.925 177.8,231.025 176.8,236.025 178.8,237.625 
		182.1,237.925 181.3,241.025 183.8,242.025 185.7,241.025 187.8,242.325 187.2,244.725 190.7,247.225 191.9,246.025 192.8,247.425 
		194.3,249.125 194.1,253.725 189.5,252.825 188.8,255.725 184.9,256.125 183.9,257.625 182.3,259.125 180.6,258.025 178.6,257.325 
		175.5,258.225 178.7,260.725 176.6,260.825 176,262.625 176.5,264.525 175.4,267.025 173.7,267.525 171.3,269.725 174.2,271.925 
		173.2,274.225 171.3,277.025 172.4,278.825 169.4,279.925 168.1,281.025 169,283.825 169.4,285.725 167.9,287.925 166.3,288.525 
		164.3,287.025 164.2,284.425 162.2,284.625 159.7,282.925 158.5,281.025 156.6,281.125 152,279.225 149.4,280.225 146.6,278.925 
		144.8,281.825 140.2,278.825 138,278.825 	"/>
</g>
<g>
	<path class="st0" d="M147.4,363.525l-1.8,1.2l0.9,2.5l1,2l-1,2.7l1.6,1.5l1.4,4.6l-0.2,2.2l1.5,1.6l1.8,0.6l6.2,3.9l1.6-1.7
		l1.6-0.7l3,3.2l2.7-0.6l4,0.8l1.5,0.9l3.7-1.1l1.4,1.8l2.1,1l2.7,3l0.8,4.7l4.9,3.2l2-1.3l3.5-0.7l1.5-1.1l1.6,0.7l1.8,1.5h3.3
		l1.7-0.6l1.7,0.2l3.3-1l2.7,0.8l-0.6,1.7l0.2,1.7l2.9,1l1.3,1.2l0.2,3l2.9,3l1.1,4.7l2.1,3.6l2.4,0.1l2-1.3l-0.4-4l1.2-2.7l1.8-0.4
		l1,1.4l4.1-0.8l2.4-0.7l2.8,1.1l0.9,2.1l2.5,1.6l4.1-0.4l1.8,0.4l1.4,1.1l2.9-0.7l3.8,1.6l2.9-0.4l-1,4.9l4.5,1.5l1.8-0.2l1,1.4
		l1.7,0.3l3.2-1.5l1.6-0.5l3.5,0.7l1-1.4l2.4-1.3l0.1-1.7l0.9-1.6l1.4,1.3l3.9-0.1l1.1-1.5l3.2-0.7l1.9-4.3l1.5-2.5l2,1.3l3.1-0.7
		l3.9-1.3l4.1,0.1l2.7-1.2l2,1.4h2.9l1-2.6l-1.2-3.3l-3-1.2l-6.7-5.9l-0.2-2.1l-3.5-0.6l-4.8,2.6l-3.7,1l-6-2.1l-1.7-1.6l-2.6-1.7
		l2.5-1.6l-4.7-6.1l-4-1.8l2-4.3l1.8-1.2l7.2-0.6l1.7-0.8l2.8-2.7l0.5-4.4l-0.6-4.6l-6-1.6l0.4-2.2l3.2-1.7l3.4,1.5l2-1.4l-2.4-1.2
		l-0.3-3.4l0.5-2.1l-2.2-1.3l2-3.7l-1.2-2.2l-1.8-1.2h-2l-0.1-3l2.1,0.1l-1.2-7.7l-2.9-2.2l-1.4-1.5l-3,2.7l-1.5-2.3v-2.9l-3,0.5
		l-0.6-2.8l-0.4,2.3l-3.5-0.3l-2.5-1.4l-2.7-0.6l-4-2.6l-0.9-1.6l-3.8-1l1.9-3.8v-2l-3-3.6l0.1-2.3l-1.5-2.6l-1.9-1.3l-2.9,3.7
		l0.6,2.6l-2.5,1.2l-0.2-3.3l-4.1-1.7l-2.7-1.5l-0.9,2.5l-1.9-0.5l-1.9-2.2l-2.4,0.9l-0.8-2.4l-2.4-1.5l-0.5,5.2l1.5,2.3l-1.6,2.1
		l1.5,2l-2.2-0.2l-1.4,1.6l-1.4,1.1l-2.9-1l-3-1.9l1.2-4.4l-3-4.3l-2.8-2l-0.8-3.6l-3.4-1l-1.8,0.3l-1.8,2.8l-3.1,1.5l1.1,2.6
		l3.5,2.8l-1.4,1l2.3,0.5l4.7,1.7l0.6,2.8l-1.2,2l-1.7-0.4l-3.6,1.4l-1.7,2.4l-2.3,0.1l-3-1.1l-2.4,2l-1.7-0.9l-3.1,4.9l2.8,1.8
		l2.2,0.4l2.3-0.1l3.5,4.5l-2.6,1.6l-2.7,0.8l0.2,2.8l-2.1,0.6l-2.8,0.3l-3-6.8l-2.9-2.7l-1.6,1.5l-2.1-1.2l-2.7-3.1l-1.5,1.4
		l-3,1.4l-4.3-1l-0.4,4.4l-1.7,3.3l-4.3-0.9l-1.6,2.3l1,2.6l-2.7,0.6l0.9,1.7l-0.2,3l0.5,3.8l2.4,0.8l1.8,1.5l-2.1,0.6l-1.4,2.6
		l-2.1,2.8l-1.8,0.6l-4.7,0.6l-1.9,1.2l-4.7,0.2l1.2,3.8l-1.5,1.5L147.4,363.525z"/>
	<polyline class="st1" points="145.6,364.725 146.5,367.225 147.5,369.225 146.5,371.925 148.1,373.425 149.5,378.025 
		149.3,380.225 150.8,381.825 152.6,382.425 158.8,386.325 160.4,384.625 162,383.925 165,387.125 167.7,386.525 171.7,387.325 
		173.2,388.225 176.9,387.125 178.3,388.925 180.4,389.925 183.1,392.925 183.9,397.625 188.8,400.825 190.8,399.525 194.3,398.825 
		195.8,397.725 197.4,398.425 199.2,399.925 202.5,399.925 204.2,399.325 205.9,399.525 209.2,398.525 211.9,399.325 211.3,401.025 
		211.5,402.725 214.4,403.725 215.7,404.925 215.9,407.925 218.8,410.925 219.9,415.625 222,419.225 224.4,419.325 226.4,418.025 
		226,414.025 227.2,411.325 229,410.925 230,412.325 234.1,411.525 236.5,410.825 239.3,411.925 240.2,414.025 242.7,415.625 
		246.8,415.225 248.6,415.625 250,416.725 252.9,416.025 256.7,417.625 259.6,417.225 258.6,422.125 263.1,423.625 264.9,423.425 
		265.9,424.825 267.6,425.125 270.8,423.625 272.4,423.125 275.9,423.825 276.9,422.425 279.3,421.125 279.4,419.425 280.3,417.825 
		281.7,419.125 285.6,419.025 286.7,417.525 289.9,416.825 291.8,412.525 293.3,410.025 295.3,411.325 298.4,410.625 302.3,409.325 
		306.4,409.425 309.1,408.225 311.1,409.625 314,409.625 315,407.025 313.8,403.725 310.8,402.525 304.1,396.625 303.9,394.525 
		300.4,393.925 295.6,396.525 291.9,397.525 285.9,395.425 284.2,393.825 281.6,392.125 284.1,390.525 279.4,384.425 275.4,382.625 
		277.4,378.325 279.2,377.125 286.4,376.525 288.1,375.725 290.9,373.025 291.4,368.625 290.8,364.025 284.8,362.425 285.2,360.225 
		288.4,358.525 291.8,360.025 293.8,358.625 291.4,357.425 291.1,354.025 291.6,351.925 289.4,350.625 291.4,346.925 290.2,344.725 
		288.4,343.525 286.4,343.525 286.3,340.525 288.4,340.625 287.2,332.925 284.3,330.725 282.9,329.225 279.9,331.925 278.4,329.625 
		278.4,326.725 275.4,327.225 274.8,324.425 274.4,326.725 270.9,326.425 268.4,325.025 265.7,324.425 261.7,321.825 260.8,320.225 
		257,319.225 258.9,315.425 258.9,313.425 255.9,309.825 256,307.525 254.5,304.925 252.6,303.625 249.7,307.325 250.3,309.925 
		247.8,311.125 247.6,307.825 243.5,306.125 240.8,304.625 239.9,307.125 238,306.625 236.1,304.425 233.7,305.325 232.9,302.925 
		230.5,301.425 230,306.625 231.5,308.925 229.9,311.025 231.4,313.025 229.2,312.825 227.8,314.425 226.4,315.525 223.5,314.525 
		220.5,312.625 221.7,308.225 218.7,303.925 215.9,301.925 215.1,298.325 211.7,297.325 209.9,297.625 208.1,300.425 205,301.925 
		206.1,304.525 209.6,307.325 208.2,308.325 210.5,308.825 215.2,310.525 215.8,313.325 214.6,315.325 212.9,314.925 209.3,316.325 
		207.6,318.725 205.3,318.825 202.3,317.725 199.9,319.725 198.2,318.825 195.1,323.725 197.9,325.525 200.1,325.925 202.4,325.825 
		205.9,330.325 203.3,331.925 200.6,332.725 200.8,335.525 198.7,336.125 195.9,336.425 192.9,329.625 190,326.925 188.4,328.425 
		186.3,327.225 183.6,324.125 182.1,325.525 179.1,326.925 174.8,325.925 174.4,330.325 172.7,333.625 168.4,332.725 166.8,335.025 
		167.8,337.625 165.1,338.225 166,339.925 165.8,342.925 166.3,346.725 168.7,347.525 170.5,349.025 168.4,349.625 167,352.225 
		164.9,355.025 163.1,355.625 158.4,356.225 156.5,357.425 151.8,357.625 153,361.425 151.5,362.925 147.4,363.525 145.6,364.725 	
		"/>
</g>
<g>
	<path class="st0" d="M33,247.825l0.2,3.1l-0.2,2.7l3.1,0.4l3.2,4.1l0.3,1.8l-0.8,2.4l1.2,1.7l1.1,2.4l-0.7,1.5l-4.3,0.3l0.5,1.7
		l-1,3.3l1.9,2l-1.8,2.1l3.1,0.1l1.2-3.5l4-2.3l-0.4,2.3l1.8,1.6l-1.8,4.1l0.5,2.3l-0.8,1.5l1.2,2.2l2.4,2.6l-0.1,1.7l-1.5,1.8
		l-2-0.7l-2.8,0.2l-1.2,3.4l-1.3,1.1v2.4l2.4,1.6l-0.3,4.6l-2.5,3.3l-0.3,1.7l-3.4,0.1l0.5,7.7h-2.9l-1.4,1.7l-1.7-2.2l-2.5,4.6
		l-0.6,0.6l-1,3.4l-2.5,1.1l-1.3,1.7l-2.1-0.7l0.5,4.6l-1.4,3.1l2.1,3.2l-5.5,2.9l-4.5-0.9l0.4,2.3l-0.4,1.6l-3.7,1.5l-0.6,2.3
		l0.1,5.3l1.2,3.3l-4.4,3.9l-1.7,0.2l0.2,2.3l1,1.5v1.8l1,2.7l-0.9,3.3l1,1.4l3.7,2.1l2.3,1.8l2.2,0.4l0.3,1.8l7.7,3.6l2-1.2
		l0.4,2.2l0.9,1.5l1.2,1.6l3.1,5.2l0.2,1.8l5.1,1.6l1.2,3.9l5.9,1.7l1.8-0.3l2.9-2.5l3.9,0.7l1.6-0.8l2.6-2.2l3.3,1.1l2.7-1.9
		l2.9-0.2l2.1-2l3.8,1.2l2.2,2l4.6,0.5l0.8,2.3l-0.2,1.8l3.7,3.1l3.2-1.7l1-3.4l2.2-1l1.9-2.2l1.8,1.7l2.3,0.3l0.4,2.4l3.7,1.6
		l4.7-0.4l1.9-1.1l0.5-2l-3.7-3.7l1.3-2.2l0.4-2.3l-0.9-3.6l0.8-1.5l-0.3-5.9l0.7-2.7l-0.4-2.1l1.6-1.2v-1.7l0.7-1.6l7.1,3.1
		l1.6-0.5l1.9,0.7l1.8-1.7l0.5-2.1l2.4-5.9l0.3-1.7l5.3-4.2l0.3-1.8l-1-0.9l-1.9-0.7l-1.1-2.7l1.8-0.5v-1.9l-2-5.4l-1.9-0.3l-0.9,2
		l-3.1,1.2l-2.5,2.5l-1.9-1.4l1.2-4.7l1.6-1.2l2.3,1.2l-0.9-4.4l0.7-1.9l-3.9-1.8l-1.2-1.4l-2.2-0.6l-0.6-2.1l-1.3-1.3l-4.5,0.3
		l1.4-1l-1.2-1.3l-1.6-0.9l2.2-2.9l5.2-4.3l2.8-3.3l-1.9-1.1l1.5-2.1l2.1,0.8l2.2-0.2l2.4-1.3l0.4-2.7l-2.8-0.6l5.9-6.2l2.3-1.2
		l0.5-1.7l1.7-1.8l-3.1-1.7l-11.4-4.1l-2.2,1.2l-2.2-1.2l-4.3-1.5l-0.3,2.2l-3-0.1l-3.1-1.7l0.7-2.3l-2.5-0.8l-1.9,1l-2.2,0.2
		l-1.9,0.8l-0.6-5.5l-3.1,0.6l-0.2-3l-3.4,0.9l-5,2.4l-2.1-0.4l-2-0.9l-2.1,0.6l-0.7-1.6l-0.1-3.9l-2.2,0.6l-2.6-4.1l0.4-1.8
		l3.6-1.5l-1.3-2.6l-1.3-1.1l-1.7-1.8l-0.3-4.3l-1.8-3.2l-2.6,1.2l-1.3-2.4l-1.6,0.7l-1.8,0.1l-1.6-3.2l-1.2-1.3l-1.7,0.1l-0.8-2.5
		l-1.3-1.3l-0.5-4.7l-1-2.2l-2.3,0.1l-2.8-0.4h-2.2l-0.3,2.3L33,247.825z"/>
	<path class="st0" d="M32.3,283.425l-1.8,0.5l0.4,2.1l1.9,4.3l-2.6-0.8l-0.9,2.7l0.6,1.6l4.2,1.1l1.2-3.7l0.3-2.1l-1.5-4.1
		L32.3,283.425z"/>
	<path class="st0" d="M32.4,295.925l-4.1-0.2l-2,2.6l-0.5,2.4l2,4.4l2.4,0.7l1.3-2.1l1.9-1.6l-0.6-2.1l-1.2-1.3L32.4,295.925z"/>
	<polyline class="st1" points="30.5,283.925 30.9,286.025 32.8,290.325 30.2,289.525 29.3,292.225 29.9,293.825 34.1,294.925 
		35.3,291.225 35.6,289.125 34.1,285.025 32.3,283.425 30.5,283.925 	"/>
	<polyline class="st1" points="28.3,295.725 26.3,298.325 25.8,300.725 27.8,305.125 30.2,305.825 31.5,303.725 33.4,302.125 
		32.8,300.025 31.6,298.725 32.4,295.925 28.3,295.725 	"/>
	<polyline class="st1" points="33.2,250.925 33,253.625 36.1,254.025 39.3,258.125 39.6,259.925 38.8,262.325 40,264.025 
		41.1,266.425 40.4,267.925 36.1,268.225 36.6,269.925 35.6,273.225 37.5,275.225 35.7,277.325 38.8,277.425 40,273.925 44,271.625 
		43.6,273.925 45.4,275.525 43.6,279.625 44.1,281.925 43.3,283.425 44.5,285.625 46.9,288.225 46.8,289.925 45.3,291.725 
		43.3,291.025 40.5,291.225 39.3,294.625 38,295.725 38,298.125 40.4,299.725 40.1,304.325 37.6,307.625 37.3,309.325 33.9,309.425 
		34.4,317.125 31.5,317.125 30.1,318.825 28.4,316.625 25.9,321.225 25.3,321.825 24.3,325.225 21.8,326.325 20.5,328.025 
		18.4,327.325 18.9,331.925 17.5,335.025 19.6,338.225 14.1,341.125 9.6,340.225 10,342.525 9.6,344.125 5.9,345.625 5.3,347.925 
		5.4,353.225 6.6,356.525 2.2,360.425 0.5,360.625 0.7,362.925 1.7,364.425 1.7,366.225 2.7,368.925 1.8,372.225 2.8,373.625 
		6.5,375.725 8.8,377.525 11,377.925 11.3,379.725 19,383.325 21,382.125 21.4,384.325 22.3,385.825 23.5,387.425 26.6,392.625 
		26.8,394.425 31.9,396.025 33.1,399.925 39,401.625 40.8,401.325 43.7,398.825 47.6,399.525 49.2,398.725 51.8,396.525 
		55.1,397.625 57.8,395.725 60.7,395.525 62.8,393.525 66.6,394.725 68.8,396.725 73.4,397.225 74.2,399.525 74,401.325 
		77.7,404.425 80.9,402.725 81.9,399.325 84.1,398.325 86,396.125 87.8,397.825 90.1,398.125 90.5,400.525 94.2,402.125 
		98.9,401.725 100.8,400.625 101.3,398.625 97.6,394.925 98.9,392.725 99.3,390.425 98.4,386.825 99.2,385.325 98.9,379.425 
		99.6,376.725 99.2,374.625 100.8,373.425 100.8,371.725 101.5,370.125 108.6,373.225 110.2,372.725 112.1,373.425 113.9,371.725 
		114.4,369.625 116.8,363.725 117.1,362.025 122.4,357.825 122.7,356.025 121.7,355.125 119.8,354.425 118.7,351.725 120.5,351.225 
		120.5,349.325 118.5,343.925 116.6,343.625 115.7,345.625 112.6,346.825 110.1,349.325 108.2,347.925 109.4,343.225 111,342.025 
		113.3,343.225 112.4,338.825 113.1,336.925 109.2,335.125 108,333.725 105.8,333.125 105.2,331.025 103.9,329.725 99.4,330.025 
		100.8,329.025 99.6,327.725 98,326.825 100.2,323.925 105.4,319.625 108.2,316.325 106.3,315.225 107.8,313.125 109.9,313.925 
		112.1,313.725 114.5,312.425 114.9,309.725 112.1,309.125 118,302.925 120.3,301.725 120.8,300.025 122.5,298.225 119.4,296.525 
		108,292.425 105.8,293.625 103.6,292.425 99.3,290.925 99,293.125 96,293.025 92.9,291.325 93.6,289.025 91.1,288.225 
		89.2,289.225 87,289.425 85.1,290.225 84.5,284.725 81.4,285.325 81.2,282.325 77.8,283.225 72.8,285.625 70.7,285.225 
		68.7,284.325 66.6,284.925 65.9,283.325 65.8,279.425 63.6,280.025 61,275.925 61.4,274.125 65,272.625 63.7,270.025 62.4,268.925 
		60.7,267.125 60.4,262.825 58.6,259.625 56,260.825 54.7,258.425 53.1,259.125 51.3,259.225 49.7,256.025 48.5,254.725 
		46.8,254.825 46,252.325 44.7,251.025 44.2,246.325 43.2,244.125 40.9,244.225 38.1,243.825 35.9,243.825 35.6,246.125 33,247.825 
		33.2,250.925 	"/>
</g>
<g>
	<path class="st0" d="M150.6,171.225l-1.8-1.5l-7.2,4.4l-0.9-2l0.3-1.8l-2.1-2.4l-3.1,1.2l-2.8,2.1l-1.9,2.7l-2.1,0.7l-1-1.4
		l-0.1-1.7l-2.4-1.2l-1.3-2.5l-2.5-2.5l-2.1,0.1l-2.2,2.7l-2.6,0.8l-2.9-0.2l-2.2,1l-2.3-1.4l-3.3,0.5l-1.2,1.9l-1,2.6H99l-2.6,1.1
		l-3.2,2.2l-1.3-1.2l-5.7,0.7l-1.4,2.7l-2.8-0.7l-2.7-1.4l-3.3-0.7v-2.3l-1.7,0.2l-3.2,1.2l-1.6,1.9l-2,1.3v2.4l-3.3,0.5l0.3-2.9
		l-1.7-1.4l-2.4,2.7h-1.8l-2.1,0.3l-2.7,4.4l1.7,3.8l0.5,3.5l-0.7,1.6l-1.4,1.2l-3.2-0.4l-2-2.2l-4.3-3l3.2-2.7v-1.7l-5-5l-1,3.4
		l-2.1,0.8l-1.8,2.3l-2.9,0.2l0.2,2.1l-3.6-2.3l-1.2,1.2l-2.2-0.4l-1.4,1.7l-1.8-1.4l-4,4.1h-2.2l-0.7,1.6l0.6,1.9l3.2,1l1.8,3.2
		l-2.9,1.5l1.8,3l-0.4,1.9l0.1,3.4h-2.2l-1.8,0.2l0.5,3.5l0.7,2.5l0.2,2.9l-0.7,0.9l2.8,0.7l0.2,1.7l-3.6,2.9l-3.2,1.6l0.7,2.8
		l-1.7,1.7l0.6,1.9l0.3,2.9l-2,1.1l-0.7,1.9l-1.8-1.1v3.2l4.1,1.5l-0.9,3.3l1.3,2.1l1.8-0.8l2.2-0.5l0.7,1.6l3.6-2.1l1.7,2.6
		l8.1,0.2l2.7-1.7l0.3-2.3h2.2l2.8,0.4l2.3-0.1l1,2.2l0.5,4.7l1.3,1.4l0.7,2.5l1.8-0.2l1.2,1.4l1.6,3.1h1.8l1.6-0.8l1.3,2.4l2.6-1.1
		l1.8,3.2l0.3,4.2l1.7,1.9l1.3,1.1l1.2,2.6l-3.5,1.4l-0.5,1.9l2.7,4l2.1-0.6l0.2,3.9l0.7,1.6l2-0.6l2,0.9l2.2,0.4l5-2.3l3.4-1l0.2,3
		l3.1-0.5l0.6,5.5l1.9-0.9l2.2-0.2l1.8-1l2.5,0.8l-0.7,2.4l3.2,1.7h3l0.3-2.1l4.3,1.5l2.2,1.1l2.2-1.2l11.3,4.1l4.8-0.1l1.5-0.8
		l2.4-2.5l5.2-7.9l2,1.3l1.6-1.7l1.4-4l-0.3-2h2.3l4.5,3l1.8-2.9l2.8,1.3l2.6-1l4.6,1.9l1.9-0.1l1.3,1.9l2.4,1.8l2-0.3l0.1,2.6
		l2,1.5l1.6-0.5l1.5-2.3l-0.4-1.9l-0.9-2.8l1.3-1.1l3.1-1.1l-1.2-1.8l1.9-2.8l1-2.3l-2.9-2.2l2.4-2.2l1.8-0.5l1-2.5l-0.5-1.9
		l0.6-1.8l2.1-0.1l-3.2-2.5l3.1-0.8l2,0.7l1.8,1l1.6-1.5l0.9-1.5l3.9-0.4l0.7-2.9l4.6,0.9l0.2-4.6l-1.4-1.7l-1-1.4l-1.2,1.2
		l-3.5-2.5l0.6-2.4l-2.1-1.3l-1.8,1l-2.6-1l0.9-3.1l-3.3-0.3l-2.1-1.6l1-5l-3-2.1l-2-0.1l-1.5-2.6l-3.2-2.8l-2.4-2.7l-0.8-2.2
		l-0.6-2.6l-3.7-0.8l-2.3,1.2l-1.1-1.5l1.2-3.1l2.4-3.5l-3.6-1.4l2.1-1.4l-1.4-2.7l-1.8-1.5l-0.3-2.3l2.7-2.2l-1.9-0.9l-1.7-1.6
		l-1.3-1.7l-1.9,0.9l-3.6-1.3l-1.3-1.3l-4.9,1.6l-1.1-2.8l8-9.4l-0.7-2.5l0.3-3.2l2.7,0.4l2.1-1.6l-0.9-2.2L150.6,171.225z"/>
	<polyline class="st1" points="148.8,169.725 141.6,174.125 140.7,172.125 141,170.325 138.9,167.925 135.8,169.125 133,171.225 
		131.1,173.925 129,174.625 128,173.225 127.9,171.525 125.5,170.325 124.2,167.825 121.7,165.325 119.6,165.425 117.4,168.125 
		114.8,168.925 111.9,168.725 109.7,169.725 107.4,168.325 104.1,168.825 102.9,170.725 101.9,173.325 99,173.325 96.4,174.425 
		93.2,176.625 91.9,175.425 86.2,176.125 84.8,178.825 82,178.125 79.3,176.725 76,176.025 76,173.725 74.3,173.925 71.1,175.125 
		69.5,177.025 67.5,178.325 67.5,180.725 64.2,181.225 64.5,178.325 62.8,176.925 60.4,179.625 58.6,179.625 56.5,179.925 
		53.8,184.325 55.5,188.125 56,191.625 55.3,193.225 53.9,194.425 50.7,194.025 48.7,191.825 44.4,188.825 47.6,186.125 
		47.6,184.425 42.6,179.425 41.6,182.825 39.5,183.625 37.7,185.925 34.8,186.125 35,188.225 31.4,185.925 30.2,187.125 28,186.725 
		26.6,188.425 24.8,187.025 20.8,191.125 18.6,191.125 17.9,192.725 18.5,194.625 21.7,195.625 23.5,198.825 20.6,200.325 
		22.4,203.325 22,205.225 22.1,208.625 19.9,208.625 18.1,208.825 18.6,212.325 19.3,214.825 19.5,217.725 18.8,218.625 
		21.6,219.325 21.8,221.025 18.2,223.925 15,225.525 15.7,228.325 14,230.025 14.6,231.925 14.9,234.825 12.9,235.925 12.2,237.825 
		10.4,236.725 10.4,239.925 14.5,241.425 13.6,244.725 14.9,246.825 16.7,246.025 18.9,245.525 19.6,247.125 23.2,245.025 
		24.9,247.625 33,247.825 35.7,246.125 36,243.825 38.2,243.825 41,244.225 43.3,244.125 44.3,246.325 44.8,251.025 46.1,252.425 
		46.8,254.925 48.6,254.725 49.8,256.125 51.4,259.225 53.2,259.225 54.8,258.425 56.1,260.825 58.7,259.725 60.5,262.925 
		60.8,267.125 62.5,269.025 63.8,270.125 65,272.725 61.5,274.125 61,276.025 63.7,280.025 65.8,279.425 66,283.325 66.7,284.925 
		68.7,284.325 70.7,285.225 72.9,285.625 77.9,283.325 81.3,282.325 81.5,285.325 84.6,284.825 85.2,290.325 87.1,289.425 
		89.3,289.225 91.1,288.225 93.6,289.025 92.9,291.425 96.1,293.125 99.1,293.125 99.4,291.025 103.7,292.525 105.9,293.625 
		108.1,292.425 119.4,296.525 124.2,296.425 125.7,295.625 128.1,293.125 133.3,285.225 135.3,286.525 136.9,284.825 138.3,280.825 
		138,278.825 140.3,278.825 144.8,281.825 146.6,278.925 149.4,280.225 152,279.225 156.6,281.125 158.5,281.025 159.8,282.925 
		162.2,284.725 164.2,284.425 164.3,287.025 166.3,288.525 167.9,288.025 169.4,285.725 169,283.825 168.1,281.025 169.4,279.925 
		172.5,278.825 171.3,277.025 173.2,274.225 174.2,271.925 171.3,269.725 173.7,267.525 175.5,267.025 176.5,264.525 176,262.625 
		176.6,260.825 178.7,260.725 175.5,258.225 178.6,257.425 180.6,258.125 182.4,259.125 184,257.625 184.9,256.125 188.8,255.725 
		189.5,252.825 194.1,253.725 194.3,249.125 192.9,247.425 191.9,246.025 190.7,247.225 187.2,244.725 187.8,242.325 185.7,241.025 
		183.9,242.025 181.3,241.025 182.2,237.925 178.9,237.625 176.8,236.025 177.8,231.025 174.8,228.925 172.8,228.825 171.3,226.225 
		168.1,223.425 165.7,220.725 164.9,218.525 164.3,215.925 160.6,215.125 158.3,216.325 157.2,214.825 158.4,211.725 160.8,208.225 
		157.2,206.825 159.3,205.425 157.9,202.725 156.1,201.225 155.8,198.925 158.5,196.725 156.6,195.825 154.9,194.225 153.6,192.525 
		151.7,193.425 148.1,192.125 146.8,190.825 141.9,192.425 140.8,189.625 148.8,180.225 148.1,177.725 148.4,174.525 151.1,174.925 
		153.2,173.325 152.3,171.125 150.6,171.225 148.8,169.725 	"/>
</g>
<path class="st2" d="M493,29.725l-2.9-0.3l-1.7,0.6l0.4,2.9l-1.8,5.7l-1.6-1.4l-1.6,1.5l-1.8-0.4l-4.1,0.7l-1.9,2.7l-4.3-3.8
	l0.1-1.7l-1.9-2.2l-0.8-4.5l-1.8-2.4l-0.3-2.3l-1.1-1.6l0.2-4.7l-4.2-1.9l-2.1-2.5l-0.8,2.8l-2-0.1l-4.4,2.9l-1.9,2.2l-2.2-0.5
	l-0.2-2.1l-2.1,0.4l0.2,4l-2.8,1.1l0.2,2.2l-0.3,2.6l-1.2,1.2l-2.3,0.5l-1.8,1.3l-2.1-1.8l-1.6-3.1l-1.1-1.5l-1.7-0.2l-1.1,2.1
	l-2,1.2l0.3,3.1l-1.2,1.9l0.6,1.9l-0.1,1.9l-3.2-0.5l0.6,2l-1.6,0.8l-2,2.8l0.3,3.7l-0.9,3.9l-1.3,1.6l-0.3,2.9l1.3,3.1l-2.8,0.4
	l-1.7,4.4l-0.2,1.8l-1.7,3.1l-0.5,2.3l3.9,4.1l0.6,1.6l1.5,1.8l5.7,5.3l0.9,1.5l-1,4.7l0.1,2.4l-0.7,2.3l0.5,1.6l3.2,2.7l2.2,1.1
	l2.4,4.8l0.5,3.2l-1.3,1.1l0.9,2.1v2.8l-2.1,1l0.4,2.7l1.2,2.2l-0.5,1.7l0.8,2.2l2,0.8l0.5,3.5l-3.5,4.1l-0.4,3.6l2,0.1l1.9-1.6
	l0.9,4.6l1.7,0.1l1.6-0.6l1,1.4l4.3,1.7l-0.7,1.6l-0.1,1.7l-1.4,2.6l1.7,0.9l4.7-1.7l2.9,0.1l1.6-1.2l2.1,1l1.8-0.6l3.4,0.4l1.5,3.5
	l0.2,1.7l2.3,0.3l4.5,3.4l1.3,3.1l5.2,0.9l3-0.4l5.1,2.1l2.9-1.5l4.5,1l3.3-0.9l0.3-2.9l1.4-1.1l-2.2-1.9l0.9-3.4l2.8,0.1l1.3-1.7
	l1.7,0.2l1,2l1.9,1.1h2.2l3.7,2.1l5.2,4.1l2.8-0.9l6.5,0.5l4.2-3.4l0.5-2.1l1.9-0.2l-0.1-3.5l4.8,1.6l-0.9-3.3l-2.5-0.9l1-3.3
	l-0.2-4.3l1-1.5l2-0.2l-0.3-2.4l-2.8-0.3l-0.9-2.9l-1.9-2.9l2.3-3l0.8-2.6l-1.6-0.4l-1.6-1.8l-1.8-4.1l-2.8-3.8l2.3-1.7h5l2.7-4.2
	l0.5-2.8l2.6-3l-1.4-2.5l-0.1-4.7l-1.4-2.4l-1.3-3.6l-0.6-2.7l-1.6-3.3l-3.1,0.3l-2.1-3.5l0.1-2.6l-1.8-1.3v-5.9l-1.1-1.3l-1.8-3.7
	l1.6-2.4l-1.9-0.6v-1.7l-0.8-2.6l1.5-2.4l-1.7-1.3l-2.8-0.5l-1.2-1.3l0.3-3.5l-1.6,0.5l-1.6,0.9l-1.2-3.2l-4.1-2.3l-0.5-2.7
	l-3.1-4.1l-1.9,1.5l-2.2-0.7l-4.2,1.3l0.8-4.3l-1.7-2.8L493,29.725z"/>
<polyline class="st3" points="490.1,29.425 488.4,30.025 488.8,32.925 487,38.625 485.4,37.225 483.8,38.725 482,38.325 
	477.9,39.025 476,41.725 471.7,37.925 471.8,36.225 469.9,34.025 469.1,29.525 467.3,27.125 467,24.825 465.9,23.225 466.1,18.525 
	461.9,16.625 459.8,14.125 459,16.925 457,16.825 452.6,19.725 450.7,21.925 448.5,21.425 448.3,19.325 446.2,19.725 446.4,23.725 
	443.6,24.825 443.8,27.025 443.5,29.625 442.3,30.825 440,31.325 438.2,32.625 436.1,30.825 434.5,27.725 433.4,26.225 
	431.7,26.025 430.6,28.125 428.6,29.325 428.9,32.425 427.7,34.325 428.3,36.225 428.2,38.125 425,37.625 425.6,39.625 424,40.425 
	422,43.225 422.3,46.925 421.4,50.825 420.1,52.425 419.8,55.325 421.1,58.425 418.3,58.825 416.6,63.225 416.4,65.025 
	414.7,68.125 414.2,70.425 418.1,74.525 418.7,76.125 420.2,77.925 425.9,83.225 426.8,84.725 425.8,89.425 425.9,91.825 
	425.2,94.125 425.7,95.725 428.9,98.425 431.1,99.525 433.5,104.325 434,107.525 432.7,108.625 433.6,110.725 433.6,113.525 
	431.5,114.525 431.9,117.225 433.1,119.425 432.6,121.125 433.4,123.325 435.4,124.125 435.9,127.625 432.4,131.725 432,135.325 
	434,135.425 435.9,133.825 436.8,138.425 438.5,138.525 440.1,137.925 441.1,139.325 445.4,141.025 444.7,142.625 444.6,144.325 
	443.2,146.925 444.9,147.825 449.6,146.125 452.5,146.225 454.1,145.025 456.2,146.025 458,145.425 461.4,145.825 462.9,149.325 
	463.1,151.025 465.4,151.325 469.9,154.725 471.2,157.825 476.4,158.725 479.4,158.325 484.5,160.425 487.4,158.925 491.9,159.925 
	495.2,159.025 495.5,156.125 496.9,155.025 494.7,153.125 495.6,149.725 498.4,149.825 499.7,148.125 501.4,148.325 502.4,150.325 
	504.3,151.425 506.5,151.425 510.2,153.525 515.4,157.625 518.2,156.725 524.7,157.225 528.9,153.825 529.4,151.725 531.3,151.525 
	531.2,148.025 536,149.625 535.1,146.325 532.6,145.425 533.6,142.125 533.4,137.825 534.4,136.325 536.4,136.125 536.1,133.725 
	533.3,133.425 532.4,130.525 530.5,127.625 532.8,124.625 533.6,122.025 532,121.625 530.4,119.825 528.6,115.725 525.8,111.925 
	528.1,110.225 533.1,110.225 535.8,106.025 536.3,103.225 538.9,100.225 537.5,97.725 537.4,93.025 536,90.625 534.7,87.025 
	534.1,84.325 532.5,81.025 529.4,81.325 527.3,77.825 527.4,75.225 525.6,73.925 525.6,68.025 524.5,66.725 522.7,63.025 
	524.3,60.625 522.4,60.025 522.4,58.325 521.6,55.725 523.1,53.325 521.4,52.025 518.6,51.525 517.4,50.225 517.7,46.725 
	516.1,47.225 514.5,48.125 513.3,44.925 509.2,42.625 508.7,39.925 505.6,35.825 503.7,37.325 501.5,36.625 497.3,37.925 
	498.1,33.625 496.4,30.825 493,29.725 490.1,29.425 "/>
<path class="st0" d="M637.6,165.325l-3.4-2.3l-5-1.1l-1.9-3.8l1.4-5.6l0.1-2l-0.3-2.3l0.4-3.8l-2.2-1.6l0.7-1.6l-1.3-1.5l-3.2,0.3
	l-0.1-0.7l0.5-2.8l-3.3-4l-0.4-1.9l-2.1-2.4l-1.9,1.2l-2.3-2.3l-3.6-1.2l-1.6-0.8l-1-3.4l-2.2,0.1l-2.1-0.8l-1.1-1.8l-2.8,0.4
	l-2.3-0.6l-1.6,1.4l0.4,6.2l-1.5,2.5l-5.8-1.8l-0.3-1.7l1.1-4l-1.8-3.2l-2.1,1.2l-5.4,0.5l-0.9,2.8l-1.4,1l-2.2,0.3l0.2,3.9
	l-1.8,3.5l-1.8,1.3l-1.7-0.6l-1.4-1.1l-2.2-2.4l-3.8-1.7l-1.1-3.1l-2,1l-2.3-0.1l-0.3-2.2l-1.8-2l-2,1.3l-4.4,0.4l-2.7,2l-2-2
	l1.5-0.9l0.6-4.2l-0.1-3.3l-1.4-2.7h2.1l1-1.9l-1.7-1.6l-2-1l0.8-2.2l-1-2.1l-4.9-2.3l-2.6,3l-0.5,2.8l-2.7,4.2h-5l-2.3,1.7l2.8,3.8
	l1.8,4.1l1.6,1.8l1.6,0.4l-0.8,2.6l-2.3,3l1.9,2.9l0.9,2.9l2.8,0.3l0.3,2.4l-2,0.2l-1,1.5l0.2,4.3l-1,3.3l2.5,0.9l0.9,3.3l-4.8-1.6
	l0.1,3.5l-1.9,0.2l-0.5,2.1l-4.2,3.4l-6.5-0.5l-2.8,0.9l-5.2-4.1l-3.7-2.1h-2.2l-1.9-1.1l-1-2l-1.7-0.2l-1.3,1.7l-2.8-0.1l-0.9,3.4
	l2.2,1.9l-1.4,1.1l-0.3,2.9l-3.3,0.9l-4.5-1l-2.9,1.5l-5.1-2.1l-3,0.4l-5.2-0.9l-1.3-3.1l-4.5-3.4l-2.3-0.3l-2.1,0.7l-2.8,2
	l-1.1,4.8v3.1l-1.6,0.7l-2.3,0.1l-3.5,2.1l5.2,4l3.4-0.9l1.9,3.6h3.1l1.7-0.5l1.6,1.8l2.3,0.8l3.3,2.5l0.7,0.3l-0.8,3.6l-3,1.7
	l-1.6,3.9l-3.4,0.5l-0.2,1.8l-2.1,1.1l-0.9,2.1l1,4l2.7,0.4l2.6-0.5l2.7,0.6l1.5,1.8l0.2,2.3l-0.7,2.3l0.5,1.9l1.5-1.1l1.7-0.4
	l2.6-3.4l3.1-1l2,1.7l0.5,4.7l2.7,1.1l1.6-0.6l2.2,2l2.5-1.7l-2.8-1.9l0.7-2.2l4.9-6.9l1.7,0.3l0.1,2.8l0.8-2.4l2.2,0.2l2-2.6
	l0.5-2.5l0.1-1.8l1.9-1.2l2.1-0.5l1.8-1.7l6.8,0.6v2.2l1.2,1.9l3.1-0.1l1,3.1l-0.9,2.1l-2.6,3.8l0.8,2l5.2,1.6l1.7-1.4l4.7-0.4
	l2.5-0.6l-0.2,2.3l0.7,1.6l1.8,0.9l4.5,2.7l0.2,1.7l-1.5,1.9l-0.2,1.7l1.8,0.8l2.6-1.5l0.6-0.6l3.9,2.3l2.6,3.6v0.6l1.9,1.7l2.1-0.7
	l2,3.1l1.5,1.6l2.7-0.1l1.5,1.3l2.5,7.2l3.8,6.5v1.7l-2.7,5.4l-2.5,2.5l0.1,1.8l-3.4-0.4l-2.9,0.6l-2.6-0.9l-0.5,0.4l4.3,3.4
	l-0.9,2.4l3.1,1.7l1.6,2.5l-1.7,1.4l-0.7,2.3l0.4,1.7l1.4,2l4.2,2.3l8.2,1.8l0.1-3.5l0.7-2.8l6.8-3.1l3.3-2.4l-1.5-3.2l1.1-1.8
	l-0.2,1.8l2.1,1.7l2.6-2l2.3-0.4l2.2-2h1.8l1.1-1.2l1.9-3.1l2.3,0.3l3-3.6l-0.9-1.9l-2.2,0.9l-2.5-1.5l2.6-7.8l3.2-1.5l-0.2-2.4
	l1.2-2.1l4.7-0.8l1.6-0.8l2.7,1.3l2.4,0.3l2.5,1.7l3.5-0.4l-1.7-4.4l-0.3-1.8l1.9-5.7l2.9-5.2l0.1-3.6l-1.5-3.9l1-1.4l1.2-2.1
	l-1.9-1l-0.7-1.5l2.6-0.7l3.6-2.5l1.8-2.3l1.9-1.5l1.5-1.8l0.3-1.2l1.2-1.4l3.3-1.1l1.9-2.7l2.8-2.2l-0.6-2.1l0.2-1.9l2.9,0.5
	l1.1-1.9l-0.3-0.7l-0.6-2.4l-2.3-0.5l-1.7-3.8l-1.5-1.3L637.6,165.325z"/>
<polyline class="st3" points="634.2,163.025 629.2,161.925 627.3,158.125 628.7,152.525 628.8,150.525 628.5,148.225 628.9,144.425 
	626.7,142.825 627.4,141.225 626.1,139.725 622.9,140.025 622.8,139.325 623.3,136.525 620,132.525 619.6,130.625 617.5,128.225 
	615.6,129.425 613.3,127.125 609.7,125.925 608.1,125.125 607.1,121.725 604.9,121.825 602.8,121.025 601.7,119.225 598.9,119.625 
	596.6,119.025 595,120.425 595.4,126.625 593.9,129.125 588.1,127.325 587.8,125.625 588.9,121.625 587.1,118.425 585,119.625 
	579.6,120.125 578.7,122.925 577.3,123.925 575.1,124.225 575.3,128.125 573.5,131.625 571.7,132.925 570,132.325 568.6,131.225 
	566.4,128.825 562.6,127.125 561.5,124.025 559.5,125.025 557.2,124.925 556.9,122.725 555.1,120.725 553.1,122.025 548.7,122.425 
	546,124.425 544,122.425 545.5,121.525 546.1,117.325 546,114.025 544.6,111.325 546.7,111.325 547.7,109.425 546,107.825 
	544,106.825 544.8,104.625 543.8,102.525 538.9,100.225 536.3,103.225 535.8,106.025 533.1,110.225 528.1,110.225 525.8,111.925 
	528.6,115.725 530.4,119.825 532,121.625 533.6,122.025 532.8,124.625 530.5,127.625 532.4,130.525 533.3,133.425 536.1,133.725 
	536.4,136.125 534.4,136.325 533.4,137.825 533.6,142.125 532.6,145.425 535.1,146.325 536,149.625 531.2,148.025 531.3,151.525 
	529.4,151.725 528.9,153.825 524.7,157.225 518.2,156.725 515.4,157.625 510.2,153.525 506.5,151.425 504.3,151.425 502.4,150.325 
	501.4,148.325 499.7,148.125 498.4,149.825 495.6,149.725 494.7,153.125 496.9,155.025 495.5,156.125 495.2,159.025 491.9,159.925 
	487.4,158.925 484.5,160.425 479.4,158.325 476.4,158.725 471.2,157.825 469.9,154.725 465.4,151.325 463.1,151.025 461,151.725 
	458.2,153.725 457.1,158.525 457.1,161.625 455.5,162.325 453.2,162.425 449.7,164.525 454.9,168.525 458.3,167.625 460.2,171.225 
	463.3,171.225 465,170.725 466.6,172.525 468.9,173.325 472.2,175.825 472.9,176.125 472.1,179.725 469.1,181.425 467.5,185.325 
	464.1,185.825 463.9,187.625 461.8,188.725 460.9,190.825 461.9,194.825 464.6,195.225 467.2,194.725 469.9,195.325 471.4,197.125 
	471.6,199.425 470.9,201.725 471.4,203.625 472.9,202.525 474.6,202.125 477.2,198.725 480.3,197.725 482.3,199.425 482.8,204.125 
	485.5,205.225 487.1,204.625 489.3,206.625 491.8,204.925 489,203.025 489.7,200.825 494.6,193.925 496.3,194.225 496.4,197.025 
	497.2,194.625 499.4,194.825 501.4,192.225 501.9,189.725 502,187.925 503.9,186.725 506,186.225 507.8,184.525 514.6,185.125 
	514.6,187.325 515.8,189.225 518.9,189.125 519.9,192.225 519,194.325 516.4,198.125 517.2,200.125 522.4,201.725 524.1,200.325 
	528.8,199.925 531.3,199.325 531.1,201.625 531.8,203.225 533.6,204.125 538.1,206.825 538.3,208.525 536.8,210.425 536.6,212.125 
	538.4,212.925 541,211.425 541.6,210.825 545.5,213.125 548.1,216.725 548.1,217.325 550,219.025 552.1,218.325 554.1,221.425 
	555.6,223.025 558.3,222.925 559.8,224.225 562.3,231.425 566.1,237.925 566.1,239.625 563.4,245.025 560.9,247.525 561,249.325 
	557.6,248.925 554.7,249.525 552.1,248.625 551.6,249.025 555.9,252.425 555,254.825 558.1,256.525 559.7,259.025 558,260.425 
	557.3,262.725 557.7,264.425 559.1,266.425 563.3,268.725 571.5,270.525 571.6,267.025 572.3,264.225 579.1,261.125 582.4,258.725 
	580.9,255.525 582,253.725 581.8,255.525 583.9,257.225 586.5,255.225 588.8,254.825 591,252.825 592.8,252.825 593.9,251.625 
	595.8,248.525 598.1,248.825 601.1,245.225 600.2,243.325 598,244.225 595.5,242.725 598.1,234.925 601.3,233.425 601.1,231.025 
	602.3,228.925 607,228.125 608.6,227.325 611.3,228.625 613.7,228.925 616.2,230.625 619.7,230.225 618,225.825 617.7,224.025 
	619.6,218.325 622.5,213.125 622.6,209.525 621.1,205.625 622.1,204.225 623.3,202.125 621.4,201.125 620.7,199.625 623.3,198.925 
	626.9,196.425 628.7,194.125 630.6,192.625 632.1,190.825 632.4,189.625 633.6,188.225 636.9,187.125 638.8,184.425 641.6,182.225 
	641,180.125 641.2,178.225 644.1,178.725 645.2,176.825 644.9,176.125 644.3,173.725 642,173.225 640.3,169.425 638.8,168.125 
	637.6,165.325 634.2,163.025 "/>
<path class="st0" d="M457,198.925l-5.1-0.9l-1.8,1.1l-0.8,2.1l-1.6,0.5l-0.9,2.2l0.2,1.7l1.7,1.6l-0.2,2.4l-1.5,0.3l-1.7,1.7
	l-2.2,0.8l-6.7-0.1l-3-0.6l-1.8-1.6l-3.3-1.4l-2.4,0.1l-2.2,5.8l1.1,3.2l2.1,2.5l-2.1,2.2l0.2,5l-0.3,1.7l1.8,1.6l-1.1,2.4l-1.5-0.7
	l-2.1,0.8l-2.3-1.6l-2.2-0.8l-2.7,0.3l-2,0.9l-2.8,0.9l-1.9,1.4l-0.1,4.2l-1.3,1.2l-2.9-0.4l-2,2.1l-2.9,0.1l-2.1,1.3l-1.7-0.4
	l-1.6,1.7l-6.8,2.1l-0.7-1.7l-2.3-2.5l-4.7-1.9l-2.2,0.7l-1.7-0.1l-1-1.8l-2.8,11.7l1,1.6l-1.7,3l1.8,2.9l5.6,6l-2.2-0.6l0.2,2.3
	l-0.6,1.6l0.3,2.2l1.3,1.9l-7.3,5.1l-0.9,1.6l-2.8,1.3l-1.7,0.1l3.4,1.9l-0.8,2.1l-2.5,0.3l-1.2,1.4l-0.5,2.3l0.3,1.7l-1.9,3.6
	l2,1.3l3.5,0.7l2,3.4l0.2,2.6l2.9,1.8l2.4-1.2l1.9,0.3l2-1.9l0.3-1.6l1.3-1.7l1.4,2.5l0.8,2.8l-0.6,1.6l1.1,1.6l4,1.5l1.5,1.7
	l2.4-0.6l1.8-2.8v-2.3l2.8-2.9l-0.4-2.5l1.5-0.8l3.5-0.3l2.8-0.8l0.6-1.6l-0.6-2.9l-1.7-2.9l1.7-1.8l0.4,1.9l1.9,1l1,6.9l2,1.1
	l5.8,1.2l4.1-1.2h1.8l0.2,3.3l0.8,3.3l3-0.2l2.3,0.3l5.4,3.7l2.7-0.5l2.8,0.2l0.6,2.1l1.6,0.7l1.8-0.2l2.5-1.1l4.5,5.3l1.5,1.1
	l3.8-3.6l8.9-6.4l7.1-3l3.6-0.6l1.8,1.4l9.1,0.9l2.9-4.5l9.8-11.4l4.1-3.6l1.6-0.8l2.9,0.1l4.5-1.7l-0.1-2.5l8.6-4.3l7.1-8.3
	l14.4-10.5l-0.1,1.3l4.4-2l4-1l8,0.2l0.9-2.4l-4.4-3.4l0.6-0.4l2.6,0.9l2.8-0.6l3.4,0.4v-1.8l2.4-2.5l2.7-5.4l0.1-1.7l-3.9-6.5
	l-2.4-7.2l-1.5-1.3l-2.8,0.1l-1.5-1.6l-2-3.1l-2,0.7l-2-1.7v-0.6l-2.6-3.6l-3.8-2.3l-0.7,0.6l-2.6,1.5l-1.8-0.8l0.3-1.7l1.4-1.9
	l-0.1-1.7l-4.5-2.7l-1.8-0.9l-0.8-1.6l0.3-2.3l-2.5,0.6l-4.8,0.4l-1.6,1.4l-5.2-1.6l-0.8-2l2.6-3.8l0.8-2.1l-1-3.1l-3.1,0.1
	l-1.1-1.9v-2.2l-6.9-0.6l-1.7,1.7l-2.2,0.5l-1.8,1.2l-0.1,1.8l-0.6,2.5l-1.9,2.6l-2.2-0.2l-0.8,2.4l-0.1-2.8l-1.8-0.3l-4.8,6.9
	l-0.8,2.2l2.9,1.9l-2.6,1.7l-2.1-2l-1.6,0.6l-2.8-1.1l-0.4-4.7l-2.1-1.7l-3.1,1l-2.5,3.4l-1.7,0.4l-1.5,1.1l-0.6-1.9l0.8-2.3
	l-0.2-2.3l-1.5-1.8l-2.8-0.6l-2.5,0.5l-2.8-0.4L457,198.925z"/>
<polyline class="st3" points="451.9,198.025 450.1,199.125 449.3,201.225 447.7,201.725 446.8,203.925 447,205.625 448.7,207.225 
	448.5,209.625 447,209.925 445.3,211.625 443.1,212.425 436.4,212.325 433.4,211.725 431.6,210.125 428.3,208.725 425.9,208.825 
	423.7,214.625 424.8,217.825 426.9,220.325 424.8,222.525 425,227.525 424.7,229.225 426.5,230.825 425.4,233.225 423.9,232.525 
	421.8,233.325 419.5,231.725 417.3,230.925 414.6,231.225 412.6,232.125 409.8,233.025 407.9,234.425 407.8,238.625 406.5,239.825 
	403.6,239.425 401.6,241.525 398.7,241.625 396.6,242.925 394.9,242.525 393.3,244.225 386.5,246.325 385.8,244.625 383.5,242.125 
	378.8,240.225 376.6,240.925 374.9,240.825 373.9,239.025 371.1,250.725 372.1,252.325 370.4,255.325 372.2,258.225 377.8,264.225 
	375.6,263.625 375.8,265.925 375.2,267.525 375.5,269.725 376.8,271.625 369.5,276.725 368.6,278.325 365.8,279.625 364.1,279.725 
	367.5,281.625 366.7,283.725 364.2,284.025 363,285.425 362.5,287.725 362.8,289.425 360.9,293.025 362.9,294.325 366.4,295.025 
	368.4,298.425 368.6,301.025 371.5,302.825 373.9,301.625 375.8,301.925 377.8,300.025 378.1,298.425 379.4,296.725 380.8,299.225 
	381.6,302.025 381,303.625 382.1,305.225 386.1,306.725 387.6,308.425 390,307.825 391.8,305.025 391.8,302.725 394.6,299.825 
	394.2,297.325 395.7,296.525 399.2,296.225 402,295.425 402.6,293.825 402,290.925 400.3,288.025 402,286.225 402.4,288.125 
	404.3,289.125 405.3,296.025 407.3,297.125 413.1,298.325 417.2,297.125 419,297.125 419.2,300.425 420,303.725 423,303.525 
	425.3,303.825 430.7,307.525 433.4,307.025 436.2,307.225 436.8,309.325 438.4,310.025 440.2,309.825 442.7,308.725 447.2,314.025 
	448.7,315.125 452.5,311.525 461.4,305.125 468.5,302.125 472.1,301.525 473.9,302.925 483,303.825 485.9,299.325 495.7,287.925 
	499.8,284.325 501.4,283.525 504.3,283.625 508.8,281.925 508.7,279.425 517.3,275.125 524.4,266.825 538.8,256.325 538.7,257.625 
	543.1,255.625 547.1,254.625 555.1,254.825 556,252.425 551.6,249.025 552.2,248.625 554.8,249.525 557.6,248.925 561,249.325 
	561,247.525 563.4,245.025 566.1,239.625 566.2,237.925 562.3,231.425 559.9,224.225 558.4,222.925 555.6,223.025 554.1,221.425 
	552.1,218.325 550.1,219.025 548.1,217.325 548.1,216.725 545.5,213.125 541.7,210.825 541,211.425 538.4,212.925 536.6,212.125 
	536.9,210.425 538.3,208.525 538.2,206.825 533.7,204.125 531.9,203.225 531.1,201.625 531.4,199.325 528.9,199.925 524.1,200.325 
	522.5,201.725 517.3,200.125 516.5,198.125 519.1,194.325 519.9,192.225 518.9,189.125 515.8,189.225 514.7,187.325 514.7,185.125 
	507.8,184.525 506.1,186.225 503.9,186.725 502.1,187.925 502,189.725 501.4,192.225 499.5,194.825 497.3,194.625 496.5,197.025 
	496.4,194.225 494.6,193.925 489.8,200.825 489,203.025 491.9,204.925 489.3,206.625 487.2,204.625 485.6,205.225 482.8,204.125 
	482.4,199.425 480.3,197.725 477.2,198.725 474.7,202.125 473,202.525 471.5,203.625 470.9,201.725 471.7,199.425 471.5,197.125 
	470,195.325 467.2,194.725 464.7,195.225 461.9,194.825 457,198.925 451.9,198.025 "/>
<path class="st2" d="M325.6,274.525l-4.3,4.3l0.1,1.8l0.7,1.7l-1.8,4.4l-3.8-2.7l-1.7-3.1l-1.8,0.2l-2.8,1.9l-3.1,1.6l-2.2,0.1
	l-2.3-0.4l-0.4-2l-2.1-3.9l-2.9-1.1l1.1,1.9l-2.2,0.4l-1,1.4l-2.7,1l-3.4-2.3l-2.1,0.3l-1.8-0.5l-2.3,3.9l-1.4,1.1l-0.6-3.4l-5.2-5
	l-1.7,1.8l0.2,1.7l-2.2,0.8l-1.2,1.2l0.5,2.1l0.6,0.7l-1.7,0.1l-1,5.8l1.1,1.5v1.7l-2.1,0.1l-1.5-0.8l-1.6,1.4l-2.9-2.2l-1.7,2.1
	l-1.1,0.8l1.1,2.9l-4,2.2l-0.3,3.6l-1.7,1.4l1.6,2.5l-0.1,2.3l2.9,3.6l0.1,2.1l-2,3.8l2.1,0.4l1.7,0.6l1,1.5l4,2.6l2.7,0.6l2.5,1.4
	l3.4,0.3l0.5-2.2l0.6,2.7l3-0.5v3l1.4,2.2l3-2.7l1.5,1.5l2.9,2.3l1.2,7.7l-2.1-0.1l0.1,2.9h2l1.8,1.3l1.2,2.1l-2,3.8l2.2,1.2
	l-0.5,2.1l0.3,3.4l2.4,1.2l-2,1.4l-3.4-1.5l-3.2,1.7l-0.4,2.2l5.9,1.7l0.7,4.6l-0.5,4.4l-2.8,2.6l-1.7,0.8l-7.3,0.7l-1.7,1.1l-2,4.3
	l4,1.8l4.7,6.2l-2.5,1.6l2.6,1.7l1.7,1.6l6,2l3.6-0.9l4.9-2.7l3.4,0.7l0.3,2.1l6.7,5.8l3,1.3l1.2,3.2l-1,2.7l1.2,2.5l2.1-0.4
	l3.3-3.6l2.8-0.8l3-5.5l1.4,1.1l1.6,0.4l4.3-1.3l2.6-2.5l1.6-0.9l0.2-1.7l-0.5-1.9l-0.5-3.5l-0.6-1.9l-0.1-3.5l-1.5-3l-1.2-1.2
	l0.3-1.7l5.8-1.9l10.9,1.5l5.5-2.2l1.8,0.9h5.5l1.7,0.3l3.9,1.2l4.6-0.4l3.1,0.3l2.3,1l5.7-0.6l1.6-0.7l1.7-2.3l1-3.7l3.1-3.6
	l2.9-0.7l3.2-2.4l3.7-1.1l2,2.9l3.3,0.9l1.3,1.9l9.1,3.4l6.9,4.5l1.3-14.8l-1.9-1.3l0.3-4.9l2.7-10.2l2.4-6.2l4.1-7.9l1.7-1.7
	l2.1-4.8l4.3-5.2l7.1-7.4l-1.5-1.1l-4.5-5.3l-2.5,1.1l-1.8,0.2l-1.6-0.7l-0.6-2.1l-2.8-0.2l-2.7,0.5l-5.4-3.7l-2.3-0.3l-3,0.2
	l-0.8-3.3l-0.2-3.3h-1.8l-4.1,1.2l-5.8-1.2l-2-1.1l-1-6.9l-1.9-1l-0.4-1.9l-1.7,1.8l1.7,2.9l0.6,2.9l-0.6,1.6l-2.8,0.8l-3.5,0.3
	l-1.5,0.8l0.4,2.5l-2.8,2.9v2.3l-1.8,2.8l-2.4,0.6l-1.5-1.7l-4-1.5l-1.1-1.6l0.6-1.6l-0.8-2.8l-1.4-2.5l-1.3,1.7l-0.3,1.6l-2,1.9
	l-1.9-0.3l-2.4,1.2l-2.9-1.8l-0.2-2.6l-2-3.4l-3.5-0.7l-2-1.3l1.9-3.6l-0.3-1.7l0.5-2.3l1.2-1.4l2.5-0.3l0.8-2.1l-3.4-1.9l-2.2-0.3
	l-3.6,0.2l-3.1-2.3l-2.6,0.1l-0.5,0.2l-2.3,0.6l-3-0.5l-2.4,1.6l-1.1,1.5l-3-1.1l-3.3-1.6l-4.3-1.5l-1.8-0.9l-2.2,0.9L325.6,274.525
	z"/>
<polyline class="st3" points="321.3,278.825 321.4,280.625 322.1,282.325 320.3,286.725 316.5,284.025 314.8,280.925 313,281.125 
	310.2,283.025 307.1,284.625 304.9,284.725 302.6,284.325 302.2,282.325 300.1,278.425 297.2,277.325 298.3,279.225 296.1,279.625 
	295.1,281.025 292.4,282.025 289,279.725 286.9,280.025 285.1,279.525 282.8,283.425 281.4,284.525 280.8,281.125 275.6,276.125 
	273.9,277.925 274.1,279.625 271.9,280.425 270.7,281.625 271.2,283.725 271.8,284.425 270.1,284.525 269.1,290.325 270.2,291.825 
	270.2,293.525 268.1,293.625 266.6,292.825 265,294.225 262.1,292.025 260.4,294.125 259.3,294.925 260.4,297.825 256.4,300.025 
	256.1,303.625 254.4,305.025 256,307.525 255.9,309.825 258.8,313.425 258.9,315.525 256.9,319.325 259,319.725 260.7,320.325 
	261.7,321.825 265.7,324.425 268.4,325.025 270.9,326.425 274.3,326.725 274.8,324.525 275.4,327.225 278.4,326.725 278.4,329.725 
	279.8,331.925 282.8,329.225 284.3,330.725 287.2,333.025 288.4,340.725 286.3,340.625 286.4,343.525 288.4,343.525 290.2,344.825 
	291.4,346.925 289.4,350.725 291.6,351.925 291.1,354.025 291.4,357.425 293.8,358.625 291.8,360.025 288.4,358.525 285.2,360.225 
	284.8,362.425 290.7,364.125 291.4,368.725 290.9,373.125 288.1,375.725 286.4,376.525 279.1,377.225 277.4,378.325 275.4,382.625 
	279.4,384.425 284.1,390.625 281.6,392.225 284.2,393.925 285.9,395.525 291.9,397.525 295.5,396.625 300.4,393.925 303.8,394.625 
	304.1,396.725 310.8,402.525 313.8,403.825 315,407.025 314,409.725 315.2,412.225 317.3,411.825 320.6,408.225 323.4,407.425 
	326.4,401.925 327.8,403.025 329.4,403.425 333.7,402.125 336.3,399.625 337.9,398.725 338.1,397.025 337.6,395.125 337.1,391.625 
	336.5,389.725 336.4,386.225 334.9,383.225 333.7,382.025 334,380.325 339.8,378.425 350.7,379.925 356.2,377.725 358,378.625 
	363.5,378.625 365.2,378.925 369.1,380.125 373.7,379.725 376.8,380.025 379.1,381.025 384.8,380.425 386.4,379.725 388.1,377.425 
	389.1,373.725 392.2,370.125 395.1,369.425 398.3,367.025 402,365.925 404,368.825 407.3,369.725 408.6,371.625 417.7,375.025 
	424.6,379.525 425.9,364.725 424,363.425 424.3,358.525 427,348.325 429.4,342.125 433.5,334.225 435.2,332.525 437.3,327.725 
	441.6,322.525 448.7,315.125 447.2,314.025 442.7,308.725 440.2,309.825 438.4,310.025 436.8,309.325 436.2,307.225 433.4,307.025 
	430.7,307.525 425.3,303.825 423,303.525 420,303.725 419.2,300.425 419,297.125 417.2,297.125 413.1,298.325 407.3,297.125 
	405.3,296.025 404.3,289.125 402.4,288.125 402,286.225 400.3,288.025 402,290.925 402.6,293.825 402,295.425 399.2,296.225 
	395.7,296.525 394.2,297.325 394.6,299.825 391.8,302.725 391.8,305.025 390,307.825 387.6,308.425 386.1,306.725 382.1,305.225 
	381,303.625 381.6,302.025 380.8,299.225 379.4,296.725 378.1,298.425 377.8,300.025 375.8,301.925 373.9,301.625 371.5,302.825 
	368.6,301.025 368.4,298.425 366.4,295.025 362.9,294.325 360.9,293.025 362.8,289.425 362.5,287.725 363,285.425 364.2,284.025 
	366.7,283.725 367.5,281.625 364.1,279.725 361.9,279.425 358.3,279.625 355.2,277.325 352.6,277.425 352.1,277.625 349.8,278.225 
	346.8,277.725 344.4,279.325 343.3,280.825 340.3,279.725 337,278.125 332.7,276.625 330.9,275.725 328.7,276.625 325.6,274.525 
	321.3,278.825 "/>
<path class="st2" d="M389,373.725l-0.9,3.7l-1.7,2.3l-1.7,0.7l-5.7,0.6l-2.2-1l-3.1-0.3l-4.6,0.4l-3.9-1.2l-1.8-0.4H358l-1.9-0.8
	l-5.5,2.2l-10.8-1.5l-5.8,1.9l-0.3,1.7l1.2,1.2l1.5,2.9v3.6l0.7,1.9l0.4,3.5l0.5,1.8l-0.2,1.8l-1.5,0.9l-2.6,2.5l-4.3,1.3l-1.7-0.4
	l-1.3-1.1l-3,5.5l-2.8,0.8l-3.4,3.6l-2,0.4l-1.3-2.5H311l-1.9-1.5l-2.7,1.3l-4.1-0.2l-3.9,1.4l-3.1,0.6l-2.1-1.2l-3.3,6.8l-3.3,0.7
	l-1,1.4l-4,0.1l-1.3-1.2l-0.9,1.5l-0.1,1.7l-2.4,1.3l-1.1,1.5l-3.4-0.7l-1.7,0.4l-3.2,1.5l-1.7-0.2l-2.1,1.5l-2.9,0.5l-1.4,2l-0.3,3
	l-1.2,2.1l0.2,2.9l0.8,1.7l1.8-0.2l2.7,1.4l8,0.6l4.3,3.1l1.5,0.7l2.9,1.9l2.3,0.6l2-1.3l1.1,1.7l-0.1,2.4l2,1.1l-0.2,2.5l1.7,5.7
	l2.4,2.6l4.4,1.1l4.6-0.6l3.3-0.9l0.5-1.7l3-1.3l0.2-2.2l2.3-3.4l3.1-1.6l5.6,1.1l3.2-1.5l2.3-0.5l1.6-1.6l4.7,2.6l3.1-0.3l1,1.3
	l2.3,0.5l1.5,1.7l3.5,0.7l3.3,1.4h2.9l0.5,2.9l2,1.1l1.8,1.6l1.2,2l1.1,1.3l1.7-0.4l5.6,1.2l1.2-1.2l1.3-2.5h3.2l3.6,1.9l7.7-0.1
	l-0.1-1.8l-1.7-1.6l-1-3.7l2.1-0.1l0.4-2.8l2.2-0.3l4.1-2.8l4.7,0.7l1.4,1l3.4-1.3l2-3l2-1l1.8-2.6l2.1,0.5l1-2l2.4,1l4,0.7l1.7-3
	l1.8-1.3l3.6,2.4l1.4-1l6.8-0.1l1,2.8l4.3,4.9l2.2,0.4l1.1-1.4l1.7-0.7l6.9-0.2l-2.4-3.7l-0.4-2.9l-2.8-0.9l0.1-2.1l-0.8-1.9
	l0.8-1.9l-4.3-1.1l-2.9-1.7l-2.7-0.9l-0.8-2.2l-0.6-7.1l-8.6,1.7l5.1-1.3l3.3-1.5l-1-7l0.4-14.1l-0.2-3.4l0.4-16.2l-6.9-4.5
	l-9.1-3.4l-1.2-1.9l-3.4-0.9l-1.9-2.9l-3.7,1.1l-3.2,2.3l-2.9,0.7L389,373.725z M291.4,438.825l1.2,1.4l-1.4,1.5l1.9,3.1l0.8,1.7
	l-3.5,0.1l-2.8-1l0.1-2.9l2.3-3.1L291.4,438.825z"/>
<polyline class="st3" points="292.6,440.225 291.2,441.725 293.1,444.825 293.9,446.525 290.4,446.625 287.6,445.625 287.7,442.725 
	290,439.625 291.4,438.825 292.6,440.225 "/>
<polyline class="st3" points="388.1,377.425 386.4,379.725 384.7,380.425 379,381.025 376.8,380.025 373.7,379.725 369.1,380.125 
	365.2,378.925 363.4,378.525 358,378.525 356.1,377.725 350.6,379.925 339.8,378.425 334,380.325 333.7,382.025 334.9,383.225 
	336.4,386.125 336.4,389.725 337.1,391.625 337.5,395.125 338,396.925 337.8,398.725 336.3,399.625 333.7,402.125 329.4,403.425 
	327.7,403.025 326.4,401.925 323.4,407.425 320.6,408.225 317.2,411.825 315.2,412.225 313.9,409.725 311,409.725 309.1,408.225 
	306.4,409.525 302.3,409.325 298.4,410.725 295.3,411.325 293.2,410.125 289.9,416.925 286.6,417.625 285.6,419.025 281.6,419.125 
	280.3,417.925 279.4,419.425 279.3,421.125 276.9,422.425 275.8,423.925 272.4,423.225 270.7,423.625 267.5,425.125 265.8,424.925 
	263.7,426.425 260.8,426.925 259.4,428.925 259.1,431.925 257.9,434.025 258.1,436.925 258.9,438.625 260.7,438.425 263.4,439.825 
	271.4,440.425 275.7,443.525 277.2,444.225 280.1,446.125 282.4,446.725 284.4,445.425 285.5,447.125 285.4,449.525 287.4,450.625 
	287.2,453.125 288.9,458.825 291.3,461.425 295.7,462.525 300.3,461.925 303.6,461.025 304.1,459.325 307.1,458.025 307.3,455.825 
	309.6,452.425 312.7,450.825 318.3,451.925 321.5,450.425 323.8,449.925 325.4,448.325 330.1,450.925 333.2,450.625 334.2,451.925 
	336.5,452.425 338,454.125 341.5,454.825 344.8,456.225 347.7,456.225 348.2,459.125 350.2,460.225 352,461.825 353.2,463.825 
	354.3,465.125 356,464.725 361.6,465.925 362.8,464.725 364.1,462.225 367.3,462.225 370.9,464.125 378.6,464.025 378.5,462.225 
	376.8,460.625 375.8,456.925 377.9,456.825 378.3,454.025 380.5,453.725 384.6,450.925 389.3,451.625 390.7,452.625 394.1,451.325 
	396.1,448.325 398.1,447.325 399.9,444.725 402,445.225 403,443.225 405.4,444.225 409.4,444.925 411.1,441.925 412.9,440.625 
	416.5,443.025 417.9,442.025 424.7,441.925 425.7,444.725 430,449.625 432.2,450.025 433.3,448.625 435,447.925 441.9,447.725 
	439.5,444.025 439.1,441.125 436.3,440.225 436.4,438.125 435.6,436.225 436.4,434.325 432.1,433.225 429.2,431.525 426.5,430.625 
	425.7,428.425 425.1,421.325 416.5,423.025 421.6,421.725 424.9,420.225 423.9,413.225 424.3,399.125 424.1,395.725 424.5,379.525 
	417.6,375.025 408.5,371.625 407.3,369.725 403.9,368.825 402,365.925 398.3,367.025 395.1,369.325 392.2,370.025 389,373.725 
	388.1,377.425 "/>
<g>
	<g>
		<path class="st4" d="M530.9,238.025h-8.8v8.9h8.8V238.025z"/>
		<polyline class="st5" points="522.1,238.025 522.1,246.925 530.9,246.925 530.9,238.025 522.1,238.025 		"/>
	</g>
</g>
<g>
	<g>
		<path class="st4" d="M320.7,304.025h-8.8v8.9h8.8V304.025z"/>
		<polyline class="st5" points="311.9,304.025 311.9,312.925 320.7,312.925 320.7,304.025 311.9,304.025 		"/>
	</g>
</g>
<g>
	<g>
		<path class="st4" d="M408.7,396.225h-8.8v8.8h8.8V396.225z"/>
		<polyline class="st5" points="399.9,396.225 399.9,405.025 408.7,405.025 408.7,396.225 399.9,396.225 		"/>
	</g>
</g>
<g>
	<g>
		<path class="st4" d="M601.7,198.425h-8.8v8.8h8.8V198.425z"/>
		<polyline class="st5" points="592.9,198.425 592.9,207.225 601.7,207.225 601.7,198.425 592.9,198.425 		"/>
	</g>
</g>
<g>
	<g>
		<path class="st4" d="M475.2,75.825h-8.8v8.9h8.8V75.825z"/>
		<polyline class="st5" points="466.4,75.825 466.4,84.725 475.2,84.725 475.2,75.825 466.4,75.825 		"/>
	</g>
</g>
<text transform="matrix(1 0 0 1 478.3501 85.2749)" class="st6 st7">Mende</text>
<text transform="matrix(1 0 0 1 557.9502 206.375)" class="st6 st7">Nimes</text>
<text transform="matrix(1 0 0 1 465.3501 245.625)" class="st6 st7">Montpellier</text>
<text transform="matrix(1 0 0 1 309.0498 325.1748)" class="st6 st7">Carcassonne</text>
<text transform="matrix(1 0 0 1 347.75 405.2749)" class="st6 st7">Perpignan</text>
<g>
	<path class="st8" d="M532.4,235.525h-12v12h12V235.525z"/>
	<polyline class="st9" points="520.4,235.525 520.4,247.525 532.4,247.525 532.4,235.525 520.4,235.525 	"/>
</g>
<g>
	<text transform="matrix(1 0 0 1 521.7998 245.9248)" class="st2 st10 st11">M</text>
</g>
<g>
	<g>
		<path class="st4" d="M52.7,302.725h-8.8v8.8h8.8V302.725z"/>
		<polyline class="st5" points="43.9,302.725 43.9,311.525 52.7,311.525 52.7,302.725 43.9,302.725 		"/>
	</g>
</g>
<g>
	<g>
		<path class="st4" d="M113.6,236.625h-8.8v8.8h8.8V236.625z"/>
		<polyline class="st5" points="104.8,236.625 104.8,245.425 113.6,245.425 113.6,236.625 104.8,236.625 		"/>
	</g>
</g>
<g>
	<g>
		<path class="st4" d="M212.6,169.825h-8.8v8.8h8.8V169.825z"/>
		<polyline class="st5" points="203.8,169.825 203.8,178.625 212.6,178.625 212.6,169.825 203.8,169.825 		"/>
	</g>
</g>
<g>
	<g>
		<path class="st4" d="M221.4,97.225h-8.8v8.8h8.8V97.225z"/>
		<polyline class="st5" points="212.6,97.225 212.6,106.025 221.4,106.025 221.4,97.225 212.6,97.225 		"/>
	</g>
</g>
<g>
	<g>
		<path class="st4" d="M377,111.925h-8.8v8.8h8.8V111.925z"/>
		<polyline class="st5" points="368.2,111.925 368.2,120.725 377,120.725 377,111.925 368.2,111.925 		"/>
	</g>
</g>
<g>
	<g>
		<path class="st4" d="M313.2,184.625h-8.8v8.7h8.8V184.625z"/>
		<polyline class="st5" points="304.4,184.625 304.4,193.325 313.2,193.325 313.2,184.625 304.4,184.625 		"/>
	</g>
</g>
<g>
	<g>
		<path class="st4" d="M228.1,244.725h-8.8v8.8h8.8V244.725z"/>
		<polyline class="st5" points="219.3,244.725 219.3,253.525 228.1,253.525 228.1,244.725 219.3,244.725 		"/>
	</g>
</g>
<g>
	<g>
		<path class="st4" d="M246.4,351.125h-8.8v8.8h8.8V351.125z"/>
		<polyline class="st5" points="237.6,351.125 237.6,359.925 246.4,359.925 246.4,351.125 237.6,351.125 		"/>
	</g>
</g>
<text transform="matrix(1 0 0 1 211.9502 361.1748)" class="st6 st7">Foix</text>
<text transform="matrix(1 0 0 1 55.05 312.2251)" class="st6 st7">Tarbes</text>
<text transform="matrix(1 0 0 1 77.2 244.7251)" class="st6 st7">Auch</text>
<text transform="matrix(1 0 0 1 210.0498 267.9751)" class="st6 st7">Toulouse</text>
<text transform="matrix(1 0 0 1 280.7002 193.625)" class="st6 st7">Albi</text>
<text transform="matrix(1 0 0 1 174.7002 163.7749)" class="st6 st7">Montauban</text>
<text transform="matrix(1 0 0 1 227 106.2749)" class="st6 st7">Cahors</text>
<text transform="matrix(1 0 0 1 355.0498 134.4248)" class="st6 st7">Rodez</text>
<g>
	<path class="st8" d="M231,243.825h-12v12h12V243.825z"/>
	<polyline class="st9" points="219,243.825 219,255.825 231,255.825 231,243.825 219,243.825 	"/>
</g>
<g>
	<text transform="matrix(1 0 0 1 220.3501 254.2251)" class="st2 st10 st11">M</text>
</g>
</svg>
